<svg version="1.1" id="Layer_1" xmlns="http://www.w3.org/2000/svg" xmlns:xlink="http://www.w3.org/1999/xlink" x="0px" y="0px"
	 width="100%" viewBox="0 0 512 512" enable-background="new 0 0 512 512" xml:space="preserve">
<path fill="#EBEBEB" opacity="1.000000" stroke="none" 
	d="
M220.000000,513.000000 
	C147.031052,513.000000 74.062103,513.000000 1.046575,513.000000 
	C1.046575,342.436981 1.046575,171.873947 1.046575,1.000000 
	C97.355125,1.000000 193.710587,1.000000 290.439209,1.301679 
	C289.819580,2.372438 288.826782,3.141519 287.526489,4.034047 
	C284.098938,7.638426 280.978912,11.119359 277.583710,14.822765 
	C275.519501,17.969650 273.730469,20.894062 271.713928,23.939793 
	C271.358337,24.364424 271.230286,24.667732 271.032349,25.159197 
	C270.962463,25.347355 270.918915,25.746408 270.693726,25.885975 
	C270.341003,26.342121 270.213501,26.658703 270.011536,27.168461 
	C269.937134,27.361639 269.917938,27.775225 269.684387,27.986351 
	C269.259186,28.787289 269.067566,29.377102 268.917480,29.970026 
	C268.959045,29.973137 268.913788,29.903126 268.644775,30.123306 
	C265.113251,38.856552 261.850769,47.369614 258.369080,56.179073 
	C258.561829,62.605724 254.415054,63.541054 249.300995,63.830654 
	C246.241165,63.992298 243.610916,64.186966 240.566498,64.334663 
	C235.434341,64.895226 230.716354,65.502754 225.588409,66.089722 
	C224.384842,66.251869 223.591248,66.434570 222.612885,66.579422 
	C222.168488,66.591843 221.951324,66.716370 221.369781,66.900536 
	C217.890640,67.538010 214.818344,68.190086 211.344894,68.848045 
	C205.626114,70.302002 200.308502,71.750076 194.623581,73.236351 
	C188.792908,75.461922 183.329544,77.649300 177.533173,79.877777 
	C176.404617,80.211983 175.609055,80.505074 174.533203,80.861313 
	C173.775421,81.216339 173.297943,81.508217 172.533463,81.843391 
	C171.761475,82.179565 171.276505,82.472450 170.505768,82.817917 
	C169.731781,83.163330 169.243561,83.456169 168.533936,83.793015 
	C168.019730,83.925163 167.763626,84.075691 167.197235,84.391220 
	C161.845779,87.410912 156.841309,90.327995 151.503937,93.397804 
	C144.828751,98.368279 138.486450,103.186020 131.997787,108.319023 
	C126.540253,113.672775 121.229073,118.711281 115.676376,123.885178 
	C115.254608,124.334511 115.074364,124.648445 114.931778,124.965347 
	C114.969429,124.968307 114.954849,124.894188 114.712822,124.995049 
	C114.290939,125.387062 114.111084,125.678215 113.963013,125.980911 
	C113.994797,125.992455 113.967140,125.930740 113.739853,126.038727 
	C113.344604,126.429146 113.176651,126.711586 113.003006,126.995880 
	C112.997307,126.997734 112.996239,127.009567 112.742004,127.151695 
	C112.217529,127.795723 111.947304,128.297623 111.749512,128.774200 
	C111.821945,128.748856 111.669373,128.732178 111.379654,128.886292 
	C100.347763,141.673157 91.376640,155.418869 84.636490,170.990952 
	C80.076065,183.440079 75.772354,195.626083 71.301773,208.134079 
	C68.842369,220.967773 66.549835,233.479477 64.155647,246.418396 
	C63.658688,252.030060 63.263378,257.214539 62.816635,262.340881 
	C62.765202,262.282776 62.622097,262.314056 62.228714,262.459045 
	C61.682728,271.035339 61.519119,279.466583 61.427605,287.898590 
	C61.424683,288.167664 62.161930,288.444763 62.628983,288.733337 
	C62.703838,288.748566 62.827381,288.658691 62.854382,289.072266 
	C62.961666,290.309753 63.041946,291.133667 63.068794,292.361725 
	C63.109287,293.843414 63.203220,294.920929 63.252602,296.423950 
	C64.491470,306.897369 65.774895,316.945343 67.044983,327.406372 
	C67.295570,328.909576 67.564316,329.998505 67.822617,331.089935 
	C69.870712,339.743958 71.916809,348.398499 73.967407,357.439484 
	C76.700699,365.891541 79.430099,373.956940 82.151810,382.287537 
	C82.403145,382.781769 82.662178,383.010834 82.961426,383.499023 
	C83.266724,384.193298 83.531807,384.628418 83.850403,385.335754 
	C84.166573,385.825897 84.429230,386.043854 84.677582,386.295898 
	C84.663284,386.330017 84.672150,386.403473 84.626938,386.776245 
	C89.422554,396.752869 94.263374,406.356689 99.191002,416.292969 
	C103.101532,422.449768 106.925255,428.274109 110.821304,434.443939 
	C115.157761,440.224365 119.421883,445.659302 123.826065,451.378632 
	C124.276184,451.946655 124.586243,452.230286 124.959457,452.741516 
	C125.337265,453.315491 125.651917,453.661865 126.074089,454.327271 
	C133.453171,461.714020 140.724762,468.781708 148.219696,476.107239 
	C154.294418,480.649445 160.145813,484.933807 166.208603,489.466675 
	C172.834686,493.211731 179.249374,496.708344 185.925049,500.451385 
	C191.708038,502.854553 197.230042,505.011230 203.044754,507.398010 
	C208.868805,509.095947 214.400131,510.563751 219.994934,512.270386 
	C220.058411,512.509216 220.000000,513.000000 220.000000,513.000000 
z"/>
<path fill="#EBEBEB" opacity="1.000000" stroke="none" 
	d="
M319.000000,1.000000 
	C383.636047,1.000000 448.272095,1.000000 512.954102,1.000000 
	C512.954102,171.555206 512.954102,342.110413 512.954102,513.000000 
	C441.645569,513.000000 370.290649,513.000000 298.487427,512.758667 
	C298.039185,512.517273 298.102509,512.037109 298.063629,512.037842 
	C298.024750,512.038574 298.064850,512.105225 298.447113,512.099121 
	C301.217896,511.446411 303.606415,510.799774 306.384338,510.129120 
	C309.184082,509.382629 311.594421,508.660156 314.373291,507.914398 
	C317.497223,506.888580 320.252625,505.886078 323.370117,504.864044 
	C327.222839,503.277954 330.713501,501.711395 334.541382,500.085327 
	C337.246124,498.787567 339.613617,497.549347 342.325623,496.198853 
	C345.805573,494.228851 348.941071,492.371094 352.377563,490.396149 
	C353.161407,489.880280 353.644257,489.481628 354.107300,489.101257 
	C354.087494,489.119598 354.135681,489.146332 354.466919,489.050995 
	C361.229431,484.078186 367.660767,479.200745 374.397400,474.164490 
	C383.474060,464.794891 392.245392,455.584106 401.262024,446.215637 
	C405.106384,441.067963 408.705444,436.077942 412.551147,430.868774 
	C415.611420,426.128662 418.425079,421.607605 421.499207,416.877563 
	C424.630798,411.112488 427.501953,405.556427 430.601074,399.758362 
	C433.577820,393.053925 436.326569,386.591461 439.315979,379.861877 
	C441.530212,373.678955 443.503723,367.763214 445.650818,361.569672 
	C447.161896,356.196320 448.499359,351.100769 449.960449,345.633118 
	C451.214813,339.536621 452.345581,333.812225 453.633789,327.740234 
	C454.577301,320.999420 455.363403,314.606171 456.333710,307.837952 
	C456.926666,301.643677 457.335419,295.824432 457.822479,289.542267 
	C457.954529,284.273102 458.180969,279.460632 458.007782,274.662567 
	C457.867188,270.767120 457.247040,266.888977 456.896851,262.595001 
	C456.262604,253.134338 455.571075,244.081863 454.904388,234.615448 
	C452.917938,225.146088 450.906616,216.090683 448.888489,206.652176 
	C446.307831,199.068420 443.733978,191.867752 441.170959,184.305786 
	C440.054626,180.979233 438.927490,178.013962 437.724091,174.704498 
	C434.480499,168.147858 431.313202,161.935425 428.074615,155.386322 
	C423.385132,148.271912 418.766937,141.494156 414.043427,134.401352 
	C409.404510,129.012772 404.870880,123.939232 400.153076,118.575829 
	C394.299316,113.227379 388.629761,108.168785 382.748505,102.851059 
	C377.395813,99.040459 372.254822,95.489006 366.896240,91.675102 
	C361.152191,88.590012 355.625702,85.767357 349.920013,82.643631 
	C342.822571,79.584190 335.904358,76.825836 328.632263,73.954529 
	C322.518311,72.254913 316.758209,70.668243 310.641144,68.928261 
	C306.855072,68.167938 303.425934,67.560944 299.626617,66.929428 
	C297.847046,66.392418 296.437653,65.879921 294.735168,65.260849 
	C296.793518,61.469799 298.516663,58.296177 300.505554,54.926056 
	C303.890961,50.506721 307.010620,46.283890 310.410889,41.888023 
	C314.478851,37.311604 318.609344,33.154606 321.983795,28.454777 
	C329.552979,17.912611 328.394318,8.744113 319.000000,1.000000 
z"/>
<path fill="#B252D9" opacity="1.000000" stroke="none" 
	d="
M310.130280,42.061058 
	C307.010620,46.283890 303.890961,50.506721 300.177582,54.762272 
	C297.391998,49.941765 294.350525,45.277840 293.216644,40.188885 
	C291.692963,33.350540 291.844391,26.156456 290.891968,19.167513 
	C290.192963,14.038220 288.875702,8.993179 287.833984,3.910594 
	C288.826782,3.141519 289.819580,2.372438 290.906189,1.301679 
	C295.356903,1.000000 299.713806,1.000000 304.535339,1.467363 
	C305.342407,9.142097 305.271179,16.400480 306.151886,23.541462 
	C306.921692,29.783270 308.762573,35.892986 310.130280,42.061058 
z"/>
<path fill="#BF50D1" opacity="1.000000" stroke="none" 
	d="
M310.410889,41.888020 
	C308.762573,35.892986 306.921692,29.783270 306.151886,23.541462 
	C305.271179,16.400480 305.342407,9.142097 305.000000,1.467363 
	C309.356903,1.000000 313.713806,1.000000 318.535339,1.000000 
	C328.394318,8.744113 329.552979,17.912611 321.983795,28.454777 
	C318.609344,33.154606 314.478851,37.311604 310.410889,41.888020 
z"/>
<path fill="#74BF97" opacity="1.000000" stroke="none" 
	d="
M220.467941,513.000000 
	C220.000000,513.000000 220.058411,512.509216 220.372360,512.184082 
	C221.457184,509.984192 222.762421,508.149078 222.904800,506.227783 
	C223.468323,498.624237 223.574524,490.987427 224.083221,483.378540 
	C224.181183,481.913208 225.327957,480.518005 226.389191,479.084961 
	C230.870544,480.005798 234.953583,480.932129 239.029144,482.289490 
	C239.313828,485.643433 239.986160,488.587708 239.823074,491.485016 
	C239.418762,498.668121 238.632690,505.829742 238.000000,513.000000 
	C232.311966,513.000000 226.623917,513.000000 220.467941,513.000000 
z"/>
<path fill="#7FC092" opacity="1.000000" stroke="none" 
	d="
M238.464630,513.000000 
	C238.632690,505.829742 239.418762,498.668121 239.823074,491.485016 
	C239.986160,488.587708 239.313828,485.643433 239.473206,482.289246 
	C244.614288,482.290070 249.303848,482.722168 253.995392,483.596771 
	C253.331589,493.692871 252.665802,503.346436 252.000000,513.000000 
	C247.643097,513.000000 243.286194,513.000000 238.464630,513.000000 
z"/>
<path fill="#96C386" opacity="1.000000" stroke="none" 
	d="
M277.000000,513.000000 
	C272.974823,513.000000 268.949615,513.000000 264.462219,512.531372 
	C264.003387,502.510773 264.006744,492.958832 264.400146,483.336670 
	C268.505768,483.079834 272.221436,482.893250 275.954834,483.193420 
	C276.315063,493.453461 276.657532,503.226715 277.000000,513.000000 
z"/>
<path fill="#A3C47F" opacity="1.000000" stroke="none" 
	d="
M277.460632,513.000000 
	C276.657532,503.226715 276.315063,493.453461 276.286377,483.014954 
	C279.400085,481.990204 282.200043,481.630646 285.075012,481.659790 
	C286.433380,492.365662 287.716705,502.682831 289.000000,513.000000 
	C285.307098,513.000000 281.614166,513.000000 277.460632,513.000000 
z"/>
<path fill="#8AC28C" opacity="1.000000" stroke="none" 
	d="
M264.010132,483.406921 
	C264.006744,492.958832 264.003387,502.510773 264.000000,512.531372 
	C260.307098,513.000000 256.614166,513.000000 252.460632,513.000000 
	C252.665802,503.346436 253.331589,493.692871 254.419495,483.544495 
	C257.897797,483.168762 260.953949,483.287872 264.010132,483.406921 
z"/>
<path fill="#AFC578" opacity="1.000000" stroke="none" 
	d="
M289.444153,513.000000 
	C287.716705,502.682831 286.433380,492.365662 285.476257,481.562958 
	C288.500671,480.594330 291.198914,480.111267 294.046783,480.018738 
	C295.485870,490.974609 296.775360,501.539917 298.064850,512.105225 
	C298.064850,512.105225 298.024750,512.038574 297.831421,512.137512 
	C297.425385,512.490967 297.212677,512.745483 297.000000,513.000000 
	C294.629425,513.000000 292.258881,513.000000 289.444153,513.000000 
z"/>
<path fill="#BAC56F" opacity="1.000000" stroke="none" 
	d="
M297.250000,513.000000 
	C297.212677,512.745483 297.425385,512.490967 297.870300,512.136780 
	C298.102509,512.037109 298.039185,512.517273 298.019592,512.758667 
	C298.000000,513.000000 297.500000,513.000000 297.250000,513.000000 
z"/>
<path fill="#3B72FD" opacity="1.000000" stroke="none" 
	d="
M115.917892,123.749786 
	C121.229073,118.711281 126.540253,113.672775 132.359741,108.325180 
	C134.891113,109.936935 138.393753,111.664871 138.673828,113.812973 
	C139.727219,121.892410 139.973709,130.107651 140.011047,138.274368 
	C140.026642,141.687729 141.516159,142.175003 143.997513,142.355820 
	C140.426773,146.587036 136.930862,150.452927 133.665985,154.504944 
	C132.992294,155.341049 133.179382,156.870697 132.733505,158.325439 
	C127.464638,161.810135 125.388893,166.869965 124.005653,172.358444 
	C122.691078,177.574509 124.128563,183.942017 117.521576,187.064026 
	C116.184044,186.723282 115.175980,186.402603 113.782944,186.012177 
	C109.450752,183.032394 109.790848,178.684875 110.355141,174.777512 
	C111.509460,166.784668 113.433228,158.905243 114.720627,150.927551 
	C115.007339,149.150833 114.040840,147.142914 113.532860,145.273636 
	C112.741913,142.363068 111.479935,139.526031 111.112358,136.571396 
	C110.795059,134.020905 111.446304,131.349899 111.669373,128.732178 
	C111.669373,128.732178 111.821945,128.748856 112.049278,128.690002 
	C112.516487,128.090622 112.756371,127.550095 112.996246,127.009567 
	C112.996239,127.009567 112.997307,126.997734 113.215149,126.871223 
	C113.694527,126.528183 113.872574,126.256859 113.967140,125.930740 
	C113.967140,125.930740 113.994797,125.992455 114.191818,125.863846 
	C114.577507,125.454887 114.766182,125.174538 114.954849,124.894188 
	C114.954849,124.894188 114.969429,124.968307 115.174446,124.831520 
	C115.558937,124.379745 115.738419,124.064766 115.917892,123.749786 
z"/>
<path fill="#3577FC" opacity="1.000000" stroke="none" 
	d="
M111.379654,128.886292 
	C111.446304,131.349899 110.795059,134.020905 111.112358,136.571396 
	C111.479935,139.526031 112.741913,142.363068 113.532860,145.273636 
	C114.040840,147.142914 115.007339,149.150833 114.720627,150.927551 
	C113.433228,158.905243 111.509460,166.784668 110.355141,174.777512 
	C109.790848,178.684875 109.450752,183.032394 113.682175,186.359619 
	C110.274025,196.516785 106.581680,206.256744 102.584740,215.841766 
	C100.815895,213.822250 98.802528,212.167938 97.992722,210.052826 
	C95.767090,204.239822 94.074654,198.224136 92.118614,192.306061 
	C89.738197,185.104050 87.304077,177.919785 84.893188,170.727844 
	C91.376640,155.418869 100.347763,141.673157 111.379654,128.886292 
z"/>
<path fill="#A754DE" opacity="1.000000" stroke="none" 
	d="
M287.526489,4.034042 
	C288.875702,8.993179 290.192963,14.038220 290.891968,19.167513 
	C291.844391,26.156456 291.692963,33.350540 293.216644,40.188885 
	C294.350525,45.277840 297.391998,49.941765 299.911804,54.958771 
	C298.516663,58.296177 296.793518,61.469799 294.735168,65.260849 
	C296.437653,65.879921 297.847046,66.392418 299.627838,67.374199 
	C298.332581,78.822235 296.665863,89.800980 294.650299,100.787590 
	C293.864044,100.646667 293.426605,100.497887 292.909180,100.127914 
	C292.220612,99.932175 291.612061,99.957626 290.650879,100.006737 
	C289.161499,99.828537 288.024780,99.626678 286.918396,98.930466 
	C286.966003,89.514076 287.356995,80.571671 286.872406,71.676964 
	C286.535126,65.486382 284.980286,59.363773 283.996674,53.206436 
	C281.941162,40.339256 279.903717,27.469185 277.858887,14.600295 
	C280.978912,11.119359 284.098938,7.638426 287.526489,4.034042 
z"/>
<path fill="#347BFA" opacity="1.000000" stroke="none" 
	d="
M84.636482,170.990952 
	C87.304077,177.919785 89.738197,185.104050 92.118614,192.306061 
	C94.074654,198.224136 95.767090,204.239822 97.992722,210.052826 
	C98.802528,212.167938 100.815895,213.822250 102.583542,216.223633 
	C101.619492,221.500137 100.352058,226.239822 98.862610,231.118713 
	C98.727661,231.832672 98.814728,232.407425 98.927055,233.326492 
	C98.675049,234.780380 98.397774,235.889954 97.744751,236.993896 
	C95.856888,235.888229 94.095802,235.007950 92.887901,233.639420 
	C90.797424,231.270859 89.563843,227.289261 87.059784,226.307129 
	C80.227936,223.627655 77.498711,218.211044 74.945145,212.191467 
	C74.243599,210.537689 72.651894,209.261536 71.468643,207.812103 
	C75.772354,195.626083 80.076065,183.440079 84.636482,170.990952 
z"/>
<path fill="#3380F7" opacity="1.000000" stroke="none" 
	d="
M71.301773,208.134079 
	C72.651894,209.261536 74.243599,210.537689 74.945145,212.191467 
	C77.498711,218.211044 80.227936,223.627655 87.059784,226.307129 
	C89.563843,227.289261 90.797424,231.270859 92.887901,233.639420 
	C94.095802,235.007950 95.856888,235.888229 97.757111,237.421631 
	C97.050179,246.236069 95.955139,254.617111 94.618690,262.772949 
	C92.271103,260.751678 90.338562,258.681915 88.024361,257.213745 
	C82.362122,253.621460 74.761360,253.580231 70.452324,247.210739 
	C69.615280,245.973495 66.384125,246.355896 64.257301,245.991196 
	C66.549835,233.479477 68.842369,220.967773 71.301773,208.134079 
z"/>
<path fill="#35A0D7" opacity="1.000000" stroke="none" 
	d="
M99.104202,415.960541 
	C94.263374,406.356689 89.422554,396.752869 84.975861,386.637207 
	C93.252190,378.403503 101.134392,370.681580 109.238373,363.238770 
	C113.162102,372.101746 116.864044,380.685669 120.190506,389.437836 
	C118.276375,390.515015 116.231567,391.062622 115.282410,392.392334 
	C109.747292,400.146790 104.469147,408.084625 99.104202,415.960541 
z"/>
<path fill="#339ADF" opacity="1.000000" stroke="none" 
	d="
M109.016602,362.959656 
	C101.134392,370.681580 93.252190,378.403503 85.021072,386.264465 
	C84.672150,386.403473 84.663284,386.330017 84.650169,386.022583 
	C84.357002,385.497925 84.076950,385.280731 83.796890,385.063538 
	C83.531807,384.628418 83.266724,384.193298 82.902161,383.258240 
	C82.667076,382.444153 82.452690,382.198853 82.159500,382.022369 
	C79.430099,373.956940 76.700699,365.891541 74.129402,357.137939 
	C80.542679,352.804474 86.656563,348.878296 93.112083,345.631378 
	C96.388016,343.983673 100.312019,342.852295 103.878998,346.358307 
	C105.685234,352.131897 107.350914,357.545776 109.016602,362.959656 
z"/>
<path fill="#3385F4" opacity="1.000000" stroke="none" 
	d="
M64.155647,246.418396 
	C66.384125,246.355896 69.615280,245.973495 70.452324,247.210739 
	C74.761360,253.580231 82.362122,253.621460 88.024361,257.213745 
	C90.338562,258.681915 92.271103,260.751678 94.703575,263.091919 
	C95.076378,264.069153 95.122887,264.502228 94.856445,265.227295 
	C94.357101,272.013275 94.170715,278.507233 93.622467,284.952057 
	C90.572601,283.888702 87.865555,282.921875 85.200539,281.850494 
	C79.600899,279.599274 73.951553,277.450317 68.465897,274.945587 
	C65.572174,273.624298 64.131729,273.704590 63.984562,277.280823 
	C63.783085,282.176605 63.417488,287.065643 63.122231,291.957550 
	C63.041946,291.133667 62.961666,290.309753 62.905190,288.651001 
	C62.908688,279.343750 62.888374,270.871368 62.868065,262.398987 
	C63.263378,257.214539 63.658688,252.030060 64.155647,246.418396 
z"/>
<path fill="#42B0BF" opacity="1.000000" stroke="none" 
	d="
M147.996338,475.849396 
	C140.724762,468.781708 133.453171,461.714020 126.464111,454.325378 
	C130.906128,454.092407 130.964127,450.685760 131.992020,447.988190 
	C134.933273,440.269318 138.591644,432.998535 145.686188,428.042419 
	C151.659958,433.812500 157.371948,439.403717 162.713104,445.001617 
	C159.651062,447.490845 155.688583,449.488617 154.520432,452.551971 
	C151.658920,460.055878 150.087112,468.051575 147.996338,475.849396 
z"/>
<path fill="#38A6CF" opacity="1.000000" stroke="none" 
	d="
M99.191010,416.292969 
	C104.469147,408.084625 109.747292,400.146790 115.282410,392.392334 
	C116.231567,391.062622 118.276375,390.515015 120.168465,389.592621 
	C120.521889,389.579132 120.265465,389.746643 120.303932,390.016479 
	C120.629456,390.492249 120.916519,390.698120 121.157669,390.915863 
	C121.111771,390.927704 121.143364,390.838318 121.144730,391.185364 
	C121.596321,391.990570 122.046539,392.448700 122.691376,393.175110 
	C126.403038,399.245819 129.920090,405.048248 133.086456,410.987946 
	C128.142303,412.894470 124.816299,415.681519 122.557152,420.390381 
	C120.484161,424.711243 117.072105,428.414825 114.062294,432.242767 
	C113.339806,433.161652 111.873291,433.495514 110.748978,434.098450 
	C106.925255,428.274109 103.101532,422.449768 99.191010,416.292969 
z"/>
<path fill="#3CABC7" opacity="1.000000" stroke="none" 
	d="
M110.821304,434.443939 
	C111.873291,433.495514 113.339806,433.161652 114.062294,432.242767 
	C117.072105,428.414825 120.484161,424.711243 122.557152,420.390381 
	C124.816299,415.681519 128.142303,412.894470 133.324768,411.199738 
	C137.750656,416.804047 141.587524,422.333832 145.424393,427.863586 
	C138.591644,432.998535 134.933273,440.269318 131.992020,447.988190 
	C130.964127,450.685760 130.906128,454.092407 126.356598,454.006317 
	C125.651917,453.661865 125.337265,453.315491 124.864365,452.422424 
	C124.366081,451.615234 124.026047,451.354736 123.686012,451.094238 
	C119.421883,445.659302 115.157761,440.224365 110.821304,434.443939 
z"/>
<path fill="#3395E5" opacity="1.000000" stroke="none" 
	d="
M103.738457,345.998596 
	C100.312019,342.852295 96.388016,343.983673 93.112083,345.631378 
	C86.656563,348.878296 80.542679,352.804474 74.125511,356.751282 
	C71.916809,348.398499 69.870712,339.743958 67.822617,331.089935 
	C67.564316,329.998505 67.295570,328.909576 67.434784,327.351562 
	C73.648994,326.389954 79.547729,326.353607 85.244194,325.261871 
	C90.039871,324.342834 94.552841,323.316864 99.250839,326.303375 
	C100.889816,333.079651 102.314133,339.539124 103.738457,345.998596 
z"/>
<path fill="#A055E1" opacity="1.000000" stroke="none" 
	d="
M277.583710,14.822770 
	C279.903717,27.469185 281.941162,40.339256 283.996674,53.206436 
	C284.980286,59.363773 286.535126,65.486382 286.872406,71.676964 
	C287.356995,80.571671 286.966003,89.514076 286.491699,98.903252 
	C283.304199,99.102074 280.573730,98.833771 277.790588,98.262001 
	C277.490448,97.639084 277.242981,97.319633 276.996765,96.532028 
	C278.207550,73.533218 277.311768,51.259819 268.913788,29.903126 
	C268.913788,29.903126 268.959045,29.973137 269.188660,29.789932 
	C269.584839,28.996229 269.751404,28.385729 269.917969,27.775227 
	C269.917938,27.775225 269.937134,27.361639 270.218231,27.016205 
	C270.639191,26.362648 270.779053,26.054527 270.918915,25.746407 
	C270.918915,25.746408 270.962463,25.347355 271.233002,25.017174 
	C271.741547,24.443920 271.887543,24.154415 271.941467,23.818476 
	C273.730469,20.894062 275.519501,17.969650 277.583710,14.822770 
z"/>
<path fill="#338AEF" opacity="1.000000" stroke="none" 
	d="
M63.068794,292.361725 
	C63.417488,287.065643 63.783085,282.176605 63.984562,277.280823 
	C64.131729,273.704590 65.572174,273.624298 68.465897,274.945587 
	C73.951553,277.450317 79.600899,279.599274 85.200539,281.850494 
	C87.865555,282.921875 90.572601,283.888702 93.627533,285.405396 
	C94.580574,289.265686 95.166672,292.623505 95.841583,296.351624 
	C95.921211,297.480865 95.912033,298.239838 95.652710,299.299683 
	C94.558128,305.910187 94.559319,305.901062 88.148811,305.066772 
	C87.330292,304.960266 86.455223,305.156342 85.667908,304.962402 
	C77.794403,303.022797 67.867844,306.172211 63.297153,295.998444 
	C63.203220,294.920929 63.109287,293.843414 63.068794,292.361725 
z"/>
<path fill="#4AB4B5" opacity="1.000000" stroke="none" 
	d="
M148.219696,476.107239 
	C150.087112,468.051575 151.658920,460.055878 154.520432,452.551971 
	C155.688583,449.488617 159.651062,447.490845 163.006592,445.150513 
	C167.131393,448.479126 170.591858,451.665527 174.029602,455.259857 
	C172.701202,461.616211 171.474792,467.583496 170.066116,473.507416 
	C168.814880,478.769318 167.361420,483.983154 165.997192,489.218201 
	C160.145813,484.933807 154.294418,480.649445 148.219696,476.107239 
z"/>
<path fill="#54B7AC" opacity="1.000000" stroke="none" 
	d="
M166.208588,489.466675 
	C167.361420,483.983154 168.814880,478.769318 170.066116,473.507416 
	C171.474792,467.583496 172.701202,461.616211 174.385284,455.316376 
	C180.529404,458.576416 186.295105,462.187836 191.907898,466.172791 
	C190.835114,472.253235 189.999374,477.975311 188.971420,483.662659 
	C187.971436,489.195251 186.774521,494.692291 185.664078,500.204926 
	C179.249374,496.708344 172.834686,493.211731 166.208588,489.466675 
z"/>
<path fill="#3390EA" opacity="1.000000" stroke="none" 
	d="
M63.252602,296.423950 
	C67.867844,306.172211 77.794403,303.022797 85.667908,304.962402 
	C86.455223,305.156342 87.330292,304.960266 88.148811,305.066772 
	C94.559319,305.901062 94.558128,305.910187 95.733795,299.716553 
	C97.055405,308.550568 98.045792,317.268555 99.036179,325.986572 
	C94.552841,323.316864 90.039871,324.342834 85.244194,325.261871 
	C79.547729,326.353607 73.648994,326.389954 67.448112,326.938477 
	C65.774895,316.945343 64.491470,306.897369 63.252602,296.423950 
z"/>
<path fill="#436EFC" opacity="1.000000" stroke="none" 
	d="
M144.154205,142.056442 
	C141.516159,142.175003 140.026642,141.687729 140.011047,138.274368 
	C139.973709,130.107651 139.727219,121.892410 138.673828,113.812973 
	C138.393753,111.664871 134.891113,109.936935 132.506104,108.009926 
	C138.486450,103.186020 144.828751,98.368279 151.541931,93.850815 
	C153.287247,102.376808 154.418900,110.654282 156.155945,118.802696 
	C156.847336,122.045990 158.878326,125.003716 160.116760,128.385468 
	C155.357010,132.476440 150.779953,136.273392 145.946823,140.179245 
	C145.481140,140.586258 145.271530,140.884369 144.983215,141.392639 
	C144.720901,141.863998 144.470810,142.015213 144.154205,142.056442 
z"/>
<path fill="#9757E5" opacity="1.000000" stroke="none" 
	d="
M268.644775,30.123306 
	C277.311768,51.259819 278.207550,73.533218 276.537659,96.533073 
	C273.761688,96.997826 271.361572,97.354752 269.165131,96.840988 
	C268.015625,96.572113 266.399689,94.773758 266.400391,93.667053 
	C266.406128,84.602867 267.008820,75.535324 266.887665,66.476067 
	C266.804626,60.264919 263.728058,56.875793 258.588287,55.882675 
	C261.850769,47.369614 265.113251,38.856552 268.644775,30.123306 
z"/>
<path fill="#5EBAA4" opacity="1.000000" stroke="none" 
	d="
M185.925049,500.451385 
	C186.774521,494.692291 187.971436,489.195251 188.971420,483.662659 
	C189.999374,477.975311 190.835114,472.253235 192.261139,466.255493 
	C198.176941,468.658569 203.586609,471.352448 208.944641,474.428314 
	C208.261841,478.023285 207.610596,481.232452 207.003540,484.449982 
	C205.575150,492.020508 204.167862,499.595001 202.752045,507.167908 
	C197.230042,505.011230 191.708038,502.854553 185.925049,500.451385 
z"/>
<path fill="#4C6CFA" opacity="1.000000" stroke="none" 
	d="
M160.299469,128.091446 
	C158.878326,125.003716 156.847336,122.045990 156.155945,118.802696 
	C154.418900,110.654282 153.287247,102.376808 151.874832,93.698074 
	C156.841309,90.327995 161.845779,87.410912 167.297012,84.581390 
	C167.743759,84.668938 168.009369,85.006485 168.059143,85.393524 
	C169.373016,94.682449 171.378098,103.567772 171.577606,112.493462 
	C171.672363,116.732613 172.064529,118.255051 175.914917,118.415283 
	C170.561508,121.811340 165.430481,124.951393 160.299469,128.091446 
z"/>
<path fill="#68BD9D" opacity="1.000000" stroke="none" 
	d="
M203.044739,507.398010 
	C204.167862,499.595001 205.575150,492.020508 207.003540,484.449982 
	C207.610596,481.232452 208.261841,478.023285 209.332245,474.370697 
	C215.177933,475.650879 220.584396,477.370667 225.990875,479.090454 
	C225.327957,480.518005 224.181183,481.913208 224.083221,483.378540 
	C223.574524,490.987427 223.468323,498.624237 222.904800,506.227783 
	C222.762421,508.149078 221.457184,509.984192 220.308899,511.945221 
	C214.400131,510.563751 208.868805,509.095947 203.044739,507.398010 
z"/>
<path fill="#8E5AE7" opacity="1.000000" stroke="none" 
	d="
M258.369080,56.179073 
	C263.728058,56.875793 266.804626,60.264919 266.887665,66.476067 
	C267.008820,75.535324 266.406128,84.602867 266.400391,93.667053 
	C266.399689,94.773758 268.015625,96.572113 269.165131,96.840988 
	C271.361572,97.354752 273.761688,96.997826 276.536377,97.001236 
	C277.242981,97.319633 277.490448,97.639084 277.334900,98.220711 
	C266.288635,98.611877 255.645370,98.740860 245.112061,98.509247 
	C245.743805,97.794548 246.304581,97.087593 246.781418,97.140282 
	C252.237717,97.743240 253.265137,94.640442 253.027740,90.117363 
	C252.637131,82.675568 252.357056,75.225838 252.204269,67.775879 
	C252.179886,66.587090 253.061905,65.379715 253.546341,64.125381 
	C252.364853,64.044350 251.047729,63.954014 249.730606,63.863682 
	C254.415054,63.541054 258.561829,62.605724 258.369080,56.179073 
z"/>
<path fill="#5969F8" opacity="1.000000" stroke="none" 
	d="
M177.866180,79.836670 
	C183.329544,77.649300 188.792908,75.461922 194.684784,73.595917 
	C196.065933,77.059166 197.429855,80.143867 197.876526,83.356110 
	C198.577255,88.395370 198.575775,93.528206 199.033188,98.606865 
	C199.320328,101.795052 199.186630,105.302895 202.654953,107.011459 
	C196.562073,109.159546 190.803513,111.151802 185.032593,112.704391 
	C184.654785,104.074265 184.580093,95.855247 183.780167,87.707436 
	C183.462326,84.470222 183.561569,79.819992 177.968292,80.001923 
	C177.936966,79.945213 177.866180,79.836662 177.866180,79.836670 
z"/>
<path fill="#6464F5" opacity="1.000000" stroke="none" 
	d="
M202.989273,106.855637 
	C199.186630,105.302895 199.320328,101.795052 199.033188,98.606865 
	C198.575775,93.528206 198.577255,88.395370 197.876526,83.356110 
	C197.429855,80.143867 196.065933,77.059166 195.052094,73.557716 
	C200.308502,71.750076 205.626114,70.302002 211.524109,69.046844 
	C211.649094,70.384918 210.766220,71.545441 210.806702,72.672798 
	C211.100357,80.851334 211.534836,89.025948 212.030746,97.195366 
	C212.167542,99.448730 212.663116,101.680313 212.652222,104.068008 
	C209.203354,105.094627 206.096313,105.975128 202.989273,106.855637 
z"/>
<path fill="#805DEC" opacity="1.000000" stroke="none" 
	d="
M249.300995,63.830654 
	C251.047729,63.954014 252.364853,64.044350 253.546341,64.125381 
	C253.061905,65.379715 252.179886,66.587090 252.204269,67.775879 
	C252.357056,75.225838 252.637131,82.675568 253.027740,90.117363 
	C253.265137,94.640442 252.237717,97.743240 246.781418,97.140282 
	C246.304581,97.087593 245.743805,97.794548 244.695969,98.551865 
	C242.777496,98.954170 241.385071,98.953270 239.759277,98.666832 
	C239.080460,96.917229 238.290543,95.462494 238.250504,93.987419 
	C238.095901,88.290749 238.166901,82.587555 238.180664,76.886848 
	C238.191223,72.516136 236.537064,67.763145 240.980682,64.381638 
	C243.610916,64.186966 246.241165,63.992298 249.300995,63.830654 
z"/>
<path fill="#7161F2" opacity="1.000000" stroke="none" 
	d="
M212.994049,103.921890 
	C212.663116,101.680313 212.167542,99.448730 212.030746,97.195366 
	C211.534836,89.025948 211.100357,80.851334 210.806702,72.672798 
	C210.766220,71.545441 211.649094,70.384918 211.925293,69.040955 
	C214.818344,68.190086 217.890640,67.538010 221.552414,66.891983 
	C222.383301,66.857658 222.601883,66.764076 222.797653,66.617264 
	C223.591248,66.434570 224.384842,66.251869 225.589233,66.521461 
	C225.984314,67.964760 225.989166,68.956581 225.949615,69.946632 
	C225.640930,77.672836 225.372162,85.401131 224.983231,93.123352 
	C224.844193,95.884216 224.408325,98.630135 223.785156,101.552254 
	C219.972946,102.455048 216.483490,103.188469 212.994049,103.921890 
z"/>
<path fill="#775FF1" opacity="1.000000" stroke="none" 
	d="
M224.107941,101.382874 
	C224.408325,98.630135 224.844193,95.884216 224.983231,93.123352 
	C225.372162,85.401131 225.640930,77.672836 225.949615,69.946632 
	C225.989166,68.956581 225.984314,67.964760 225.999207,66.542023 
	C230.716354,65.502754 235.434341,64.895226 240.566498,64.334663 
	C236.537064,67.763145 238.191223,72.516136 238.180664,76.886848 
	C238.166901,82.587555 238.095901,88.290749 238.250504,93.987419 
	C238.290543,95.462494 239.080460,96.917229 239.368881,98.772400 
	C234.177216,99.903290 229.142578,100.643074 224.107941,101.382874 
z"/>
<path fill="#EBEBEB" opacity="1.000000" stroke="none" 
	d="
M62.554131,288.718140 
	C62.161930,288.444763 61.424683,288.167664 61.427605,287.898590 
	C61.519119,279.466583 61.682728,271.035339 62.170780,262.898163 
	C62.522198,271.700928 62.538162,280.209534 62.554131,288.718140 
z"/>
<path fill="#74BF97" opacity="1.000000" stroke="none" 
	d="
M62.628983,288.733337 
	C62.538162,280.209534 62.522198,271.700928 62.564163,262.753174 
	C62.622097,262.314056 62.765202,262.282776 62.816635,262.340881 
	C62.888374,270.871368 62.908688,279.343750 62.878189,288.237427 
	C62.827381,288.658691 62.703838,288.748566 62.628983,288.733337 
z"/>
<path fill="#4C6CFA" opacity="1.000000" stroke="none" 
	d="
M174.813492,80.798172 
	C175.609055,80.505074 176.404617,80.211983 177.533173,79.877777 
	C177.866180,79.836662 177.936966,79.945213 177.745346,80.238678 
	C176.708466,80.697502 175.863190,80.862869 174.967499,80.970108 
	C174.917084,80.911987 174.813492,80.798172 174.813492,80.798172 
z"/>
<path fill="#4C6CFA" opacity="1.000000" stroke="none" 
	d="
M172.820465,81.800095 
	C173.297943,81.508217 173.775421,81.216339 174.533203,80.861313 
	C174.813492,80.798172 174.917084,80.911987 174.785095,81.197388 
	C174.109512,81.666504 173.565918,81.850227 172.972412,81.975021 
	C172.922485,81.916092 172.820465,81.800102 172.820465,81.800095 
z"/>
<path fill="#4C6CFA" opacity="1.000000" stroke="none" 
	d="
M170.791519,82.765335 
	C171.276505,82.472450 171.761475,82.179565 172.533463,81.843399 
	C172.820465,81.800102 172.922485,81.916092 172.788635,82.201836 
	C172.109344,82.667656 171.563889,82.847733 170.961914,82.962029 
	C170.905365,82.896248 170.791519,82.765335 170.791519,82.765335 
z"/>
<path fill="#4C6CFA" opacity="1.000000" stroke="none" 
	d="
M168.755341,83.749008 
	C169.243561,83.456169 169.731781,83.163330 170.505768,82.817917 
	C170.791519,82.765335 170.905365,82.896248 170.779724,83.190155 
	C170.109222,83.664803 169.564346,83.845535 168.953369,83.957024 
	C168.887253,83.887779 168.755341,83.749008 168.755341,83.749008 
z"/>
<path fill="#9757E5" opacity="1.000000" stroke="none" 
	d="
M269.684387,27.986353 
	C269.751404,28.385729 269.584839,28.996229 269.147095,29.786821 
	C269.067566,29.377102 269.259186,28.787289 269.684387,27.986353 
z"/>
<path fill="#3577FC" opacity="1.000000" stroke="none" 
	d="
M112.742004,127.151695 
	C112.756371,127.550095 112.516487,128.090622 111.976837,128.715332 
	C111.947304,128.297623 112.217529,127.795723 112.742004,127.151695 
z"/>
<path fill="#9757E5" opacity="1.000000" stroke="none" 
	d="
M270.693726,25.885971 
	C270.779053,26.054527 270.639191,26.362648 270.292664,26.823027 
	C270.213501,26.658703 270.341003,26.342121 270.693726,25.885971 
z"/>
<path fill="#775FF1" opacity="1.000000" stroke="none" 
	d="
M222.612885,66.579422 
	C222.601883,66.764076 222.383301,66.857658 221.959290,66.906586 
	C221.951324,66.716370 222.168488,66.591843 222.612885,66.579422 
z"/>
<path fill="#9757E5" opacity="1.000000" stroke="none" 
	d="
M271.713928,23.939796 
	C271.887543,24.154415 271.741547,24.443920 271.302887,24.829018 
	C271.230286,24.667732 271.358337,24.364424 271.713928,23.939796 
z"/>
<path fill="#3577FC" opacity="1.000000" stroke="none" 
	d="
M115.676376,123.885178 
	C115.738419,124.064766 115.558937,124.379745 115.136795,124.828552 
	C115.074364,124.648445 115.254608,124.334511 115.676376,123.885178 
z"/>
<path fill="#42B0BF" opacity="1.000000" stroke="none" 
	d="
M123.826073,451.378632 
	C124.026047,451.354736 124.366081,451.615234 124.801208,452.194824 
	C124.586243,452.230286 124.276184,451.946655 123.826073,451.378632 
z"/>
<path fill="#4C6CFA" opacity="1.000000" stroke="none" 
	d="
M167.643982,84.478767 
	C167.763626,84.075691 168.019730,83.925163 168.533936,83.793015 
	C168.755341,83.749008 168.887253,83.887779 168.830887,84.163712 
	C168.570786,84.697868 168.315735,84.886818 168.009369,85.006485 
	C168.009369,85.006485 167.743759,84.668938 167.643982,84.478767 
z"/>
<path fill="#35A0D7" opacity="1.000000" stroke="none" 
	d="
M83.850410,385.335754 
	C84.076950,385.280731 84.357002,385.497925 84.664467,385.988464 
	C84.429230,386.043854 84.166573,385.825897 83.850410,385.335754 
z"/>
<path fill="#35A0D7" opacity="1.000000" stroke="none" 
	d="
M82.151810,382.287537 
	C82.452690,382.198853 82.667076,382.444153 82.861938,382.999084 
	C82.662178,383.010834 82.403145,382.781769 82.151810,382.287537 
z"/>
<path fill="#3577FC" opacity="1.000000" stroke="none" 
	d="
M114.712830,124.995049 
	C114.766182,125.174538 114.577507,125.454887 114.160034,125.852303 
	C114.111084,125.678215 114.290939,125.387062 114.712830,124.995049 
z"/>
<path fill="#3577FC" opacity="1.000000" stroke="none" 
	d="
M113.739853,126.038727 
	C113.872574,126.256859 113.694527,126.528183 113.220848,126.869370 
	C113.176651,126.711586 113.344604,126.429146 113.739853,126.038727 
z"/>
<path fill="#DC4FB5" opacity="1.000000" stroke="none" 
	d="
M400.337250,118.865692 
	C404.870880,123.939232 409.404510,129.012772 413.875366,134.738190 
	C410.314453,141.122925 406.613831,146.744186 403.376556,152.620697 
	C400.283478,158.235428 397.618134,164.089905 394.864258,169.886261 
	C391.694763,176.557388 388.553467,183.244797 385.584229,190.006058 
	C384.852844,191.671509 384.836060,193.650787 384.373901,195.451752 
	C384.257080,195.417709 384.136139,195.216644 383.789886,195.195343 
	C382.991180,195.628571 382.538727,196.083115 381.794373,196.720154 
	C376.666290,198.261780 371.830109,199.620865 366.846741,200.651810 
	C367.310822,197.527390 367.600891,194.611191 368.592224,191.956909 
	C371.839264,183.263138 377.413818,175.009293 373.316772,164.918549 
	C378.416046,162.242859 383.198944,159.722641 388.422211,156.970383 
	C385.685059,153.344574 383.326874,150.220825 380.977997,146.699387 
	C381.063080,145.479492 380.944550,144.577530 381.244263,143.847214 
	C384.925262,134.877609 391.076477,127.566963 397.294006,120.326317 
	C397.965179,119.544701 399.306702,119.338707 400.337250,118.865692 
z"/>
<path fill="#E151AD" opacity="1.000000" stroke="none" 
	d="
M384.490784,195.485794 
	C384.836060,193.650787 384.852844,191.671509 385.584229,190.006058 
	C388.553467,183.244797 391.694763,176.557388 394.864258,169.886261 
	C397.618134,164.089905 400.283478,158.235428 403.376556,152.620697 
	C406.613831,146.744186 410.314453,141.122925 413.980652,135.053253 
	C418.766937,141.494156 423.385132,148.271912 427.909546,155.717621 
	C424.675568,161.989838 422.027008,167.955368 418.251740,173.093002 
	C414.735870,177.877609 410.020782,181.781021 405.484344,186.086639 
	C398.253632,189.229218 391.372223,192.357498 384.490784,195.485794 
z"/>
<path fill="#F9AE21" opacity="1.000000" stroke="none" 
	d="
M401.016724,446.373322 
	C392.245392,455.584106 383.474060,464.794891 374.371002,473.763855 
	C373.741821,472.440033 373.702637,471.181702 373.104340,470.304932 
	C369.588409,465.152496 366.163177,459.910675 362.253937,455.064758 
	C360.025604,452.302490 358.451691,448.083862 353.770569,448.535248 
	C360.592316,441.710297 367.204529,435.159607 373.974487,428.946106 
	C379.715363,432.889771 385.283936,436.518951 390.886993,440.094208 
	C394.235657,442.230988 397.638336,444.283112 401.016724,446.373322 
z"/>
<path fill="#F26677" opacity="1.000000" stroke="none" 
	d="
M456.839569,263.003174 
	C457.247040,266.888977 457.867188,270.767120 458.007782,274.662567 
	C458.180969,279.460632 457.954529,284.273102 457.473358,289.599060 
	C448.688660,291.076599 440.337830,292.096680 431.970490,292.956543 
	C429.242462,293.236877 426.250580,293.608765 425.034851,289.539154 
	C425.034485,283.716156 425.084381,278.359009 425.564941,273.001160 
	C432.145203,273.819946 437.018097,270.401001 442.303436,268.220398 
	C447.057159,266.259064 451.987274,264.725464 456.839569,263.003174 
z"/>
<path fill="#F05F82" opacity="1.000000" stroke="none" 
	d="
M456.896851,262.595032 
	C451.987274,264.725464 447.057159,266.259064 442.303436,268.220398 
	C437.018097,270.401001 432.145203,273.819946 425.505432,272.556763 
	C424.979706,269.151245 424.944122,266.189423 424.911621,263.066010 
	C424.894775,262.691040 424.839386,262.487366 424.609344,261.861877 
	C424.374695,259.623322 424.279266,257.816223 424.547424,255.947784 
	C431.914520,254.607452 437.094147,250.469971 442.039856,245.608459 
	C445.979462,241.735947 450.575104,238.530777 454.879517,235.029358 
	C455.571075,244.081863 456.262604,253.134338 456.896851,262.595032 
z"/>
<path fill="#E654A3" opacity="1.000000" stroke="none" 
	d="
M405.833618,186.072342 
	C410.020782,181.781021 414.735870,177.877609 418.251740,173.093002 
	C422.027008,167.955368 424.675568,161.989838 427.980835,156.054276 
	C431.313202,161.935425 434.480499,168.147858 437.439819,174.878662 
	C436.757904,175.857346 436.184448,176.251007 435.825012,176.787918 
	C430.631348,184.545914 425.598572,192.416138 420.226654,200.047913 
	C418.208557,202.914948 414.633087,204.770630 414.772522,208.720840 
	C411.650940,200.981918 408.742279,193.527130 405.833618,186.072342 
z"/>
<path fill="#EE5B8C" opacity="1.000000" stroke="none" 
	d="
M454.904358,234.615433 
	C450.575104,238.530777 445.979462,241.735947 442.039856,245.608459 
	C437.094147,250.469971 431.914520,254.607452 424.469666,255.525223 
	C423.459991,250.443497 422.891724,245.722961 422.644409,240.941620 
	C425.530884,238.151627 428.234039,235.537140 430.627228,232.664398 
	C433.670715,229.010986 436.026520,224.675644 439.472443,221.493759 
	C443.929901,217.377808 448.132996,213.420578 448.895325,207.035263 
	C450.906616,216.090683 452.917938,225.146088 454.904358,234.615433 
z"/>
<path fill="#D54FBE" opacity="1.000000" stroke="none" 
	d="
M400.153076,118.575821 
	C399.306702,119.338707 397.965179,119.544701 397.294006,120.326317 
	C391.076477,127.566963 384.925262,134.877609 381.244263,143.847214 
	C380.944550,144.577530 381.063080,145.479492 380.692291,146.524506 
	C375.473633,141.873093 370.549957,136.998856 365.999023,132.051636 
	C367.906738,129.179886 369.360413,126.332710 370.992676,123.591919 
	C375.038910,116.797630 375.431305,107.865349 382.960236,103.110199 
	C388.629761,108.168785 394.299316,113.227379 400.153076,118.575821 
z"/>
<path fill="#F7B628" opacity="1.000000" stroke="none" 
	d="
M353.561066,448.809540 
	C358.451691,448.083862 360.025604,452.302490 362.253937,455.064758 
	C366.163177,459.910675 369.588409,465.152496 373.104340,470.304932 
	C373.702637,471.181702 373.741821,472.440033 374.065674,473.922668 
	C367.660767,479.200745 361.229431,484.078186 354.420227,488.663788 
	C351.823029,481.802521 349.603668,475.233124 347.384460,468.663696 
	C346.036530,464.673370 344.688904,460.682953 343.592163,456.442963 
	C347.082458,453.732086 350.321777,451.270813 353.561066,448.809540 
z"/>
<path fill="#BF50D1" opacity="1.000000" stroke="none" 
	d="
M328.986145,74.067474 
	C335.904358,76.825836 342.822571,79.584190 349.638245,82.852615 
	C346.971222,89.222908 344.360565,95.063522 341.856995,100.949692 
	C339.908295,105.531288 339.433258,111.241081 332.914520,112.098862 
	C332.929474,112.068153 332.966980,112.121887 332.772095,111.845932 
	C331.933716,111.423538 331.290192,111.277084 330.293396,111.097824 
	C327.292694,109.999290 324.645203,108.933571 321.998016,107.416428 
	C321.563843,95.412109 326.992584,85.104630 328.986145,74.067474 
z"/>
<path fill="#F36D6B" opacity="1.000000" stroke="none" 
	d="
M425.085114,290.005005 
	C426.250580,293.608765 429.242462,293.236877 431.970490,292.956543 
	C440.337830,292.096680 448.688660,291.076599 457.395050,290.061981 
	C457.335419,295.824432 456.926666,301.643677 456.101868,307.675903 
	C455.180511,308.478027 454.719360,309.534088 454.163330,309.586609 
	C445.084412,310.444977 435.998932,311.270325 426.897186,311.796295 
	C425.950684,311.850983 424.891724,309.959381 423.858582,308.511353 
	C424.249878,302.036255 424.667511,296.020630 425.085114,290.005005 
z"/>
<path fill="#C74FCB" opacity="1.000000" stroke="none" 
	d="
M332.899567,112.129570 
	C339.433258,111.241081 339.908295,105.531288 341.856995,100.949692 
	C344.360565,95.063522 346.971222,89.222908 349.817505,83.153687 
	C355.625702,85.767357 361.152191,88.590012 366.580872,91.836594 
	C365.626373,93.239716 364.520752,94.093277 363.952881,95.218277 
	C359.984344,103.080429 356.089722,110.980820 352.281952,118.921982 
	C351.814423,119.896950 352.001709,121.185883 351.557617,122.189255 
	C345.119629,118.742653 339.009613,115.436111 332.899567,112.129570 
z"/>
<path fill="#CD4FC5" opacity="1.000000" stroke="none" 
	d="
M351.885559,122.329323 
	C352.001709,121.185883 351.814423,119.896950 352.281952,118.921982 
	C356.089722,110.980820 359.984344,103.080429 363.952881,95.218277 
	C364.520752,94.093277 365.626373,93.239716 366.798492,92.099037 
	C372.254822,95.489006 377.395813,99.040459 382.748505,102.851051 
	C375.431305,107.865349 375.038910,116.797630 370.992676,123.591919 
	C369.360413,126.332710 367.906738,129.179886 365.763062,131.828949 
	C360.731384,128.562622 356.308472,125.445976 351.885559,122.329323 
z"/>
<path fill="#EB5894" opacity="1.000000" stroke="none" 
	d="
M448.888489,206.652176 
	C448.132996,213.420578 443.929901,217.377808 439.472443,221.493759 
	C436.026520,224.675644 433.670715,229.010986 430.627228,232.664398 
	C428.234039,235.537140 425.530884,238.151627 422.538269,240.537842 
	C420.872833,233.854828 419.634521,227.514801 418.758484,221.046646 
	C427.534637,218.036209 429.266968,208.981384 435.016571,203.743240 
	C440.934418,198.351837 443.254974,192.363708 441.160156,184.667068 
	C443.733978,191.867752 446.307831,199.068420 448.888489,206.652176 
z"/>
<path fill="#F9A523" opacity="1.000000" stroke="none" 
	d="
M401.262024,446.215637 
	C397.638336,444.283112 394.235657,442.230988 390.886993,440.094208 
	C385.283936,436.518951 379.715363,432.889771 374.101562,428.648987 
	C377.598694,423.635010 381.126556,419.255341 384.996674,415.029358 
	C390.432068,417.889496 395.614868,420.442566 400.590240,423.350525 
	C404.624298,425.708374 408.409088,428.492737 412.304474,431.087891 
	C408.705444,436.077942 405.106384,441.067963 401.262024,446.215637 
z"/>
<path fill="#F68D3D" opacity="1.000000" stroke="none" 
	d="
M439.075317,380.128998 
	C436.326569,386.591461 433.577820,393.053925 430.160095,399.755188 
	C428.665100,399.984680 427.744049,400.214417 427.027710,399.929474 
	C418.801483,396.657623 410.584900,393.357971 402.442535,389.885590 
	C401.771179,389.599274 401.659637,388.000305 401.380005,386.682251 
	C403.708832,381.571533 405.945618,376.789795 408.432129,372.248505 
	C409.621002,373.088165 410.485840,373.981598 411.510956,374.240540 
	C420.624542,376.542847 429.293274,380.966553 439.075317,380.128998 
z"/>
<path fill="#F58646" opacity="1.000000" stroke="none" 
	d="
M439.315979,379.861877 
	C429.293274,380.966553 420.624542,376.542847 411.510956,374.240540 
	C410.485840,373.981598 409.621002,373.088165 408.489594,371.892609 
	C410.085602,366.654266 411.873871,362.012268 413.894531,357.711365 
	C414.544342,358.304291 414.934601,358.703156 415.383240,358.786041 
	C423.839905,360.347900 432.286438,361.981964 440.781891,363.299469 
	C442.236969,363.525116 443.906677,362.366577 445.477234,361.847473 
	C443.503723,367.763214 441.530212,373.678955 439.315979,379.861877 
z"/>
<path fill="#F79533" opacity="1.000000" stroke="none" 
	d="
M401.287964,387.011230 
	C401.659637,388.000305 401.771179,389.599274 402.442535,389.885590 
	C410.584900,393.357971 418.801483,396.657623 427.027710,399.929474 
	C427.744049,400.214417 428.665100,399.984680 429.932098,399.997192 
	C427.501953,405.556427 424.630798,411.112488 421.111542,416.848511 
	C416.380157,414.946045 412.420746,412.554352 408.183075,410.857605 
	C402.597473,408.621124 396.793427,406.930359 391.148956,404.669250 
	C394.572418,398.559418 397.930206,392.785339 401.287964,387.011230 
z"/>
<path fill="#F47460" opacity="1.000000" stroke="none" 
	d="
M423.884949,308.970825 
	C424.891724,309.959381 425.950684,311.850983 426.897186,311.796295 
	C435.998932,311.270325 445.084412,310.444977 454.163330,309.586609 
	C454.719360,309.534088 455.180511,308.478027 455.917664,308.050934 
	C455.363403,314.606171 454.577301,320.999420 453.192841,327.844116 
	C441.920135,330.198669 431.526855,328.246796 421.112244,325.597748 
	C422.008087,319.785004 422.946503,314.377930 423.884949,308.970825 
z"/>
<path fill="#B451D7" opacity="1.000000" stroke="none" 
	d="
M328.632263,73.954529 
	C326.992584,85.104630 321.563843,95.412109 321.700439,107.372757 
	C321.222290,107.692635 321.041992,107.604752 320.726257,107.398056 
	C320.384949,107.142929 320.159729,107.057968 319.530975,107.022346 
	C315.379486,105.855217 311.612152,104.690117 307.743774,103.188110 
	C307.441223,101.359322 306.911194,99.826500 307.091217,98.382172 
	C308.309631,88.604851 309.678131,78.846245 310.998108,69.081581 
	C316.758209,70.668243 322.518311,72.254913 328.632263,73.954529 
z"/>
<path fill="#E9559B" opacity="1.000000" stroke="none" 
	d="
M441.170959,184.305786 
	C443.254974,192.363708 440.934418,198.351837 435.016571,203.743240 
	C429.266968,208.981384 427.534637,218.036209 418.619751,220.724731 
	C417.074341,216.688950 416.029877,212.846970 414.985413,209.004990 
	C414.633087,204.770630 418.208557,202.914948 420.226654,200.047913 
	C425.598572,192.416138 430.631348,184.545914 435.825012,176.787918 
	C436.184448,176.251007 436.757904,175.857346 437.516113,175.222885 
	C438.927490,178.013962 440.054626,180.979233 441.170959,184.305786 
z"/>
<path fill="#F58050" opacity="1.000000" stroke="none" 
	d="
M445.650818,361.569702 
	C443.906677,362.366577 442.236969,363.525116 440.781891,363.299469 
	C432.286438,361.981964 423.839905,360.347900 415.383240,358.786041 
	C414.934601,358.703156 414.544342,358.304291 413.948608,357.356445 
	C415.197510,351.773926 416.624786,346.887512 418.421448,342.170929 
	C425.645630,343.227509 432.495880,344.151337 439.357086,344.985413 
	C442.840210,345.408813 446.342957,345.670441 449.836853,346.005188 
	C448.499359,351.100769 447.161896,356.196320 445.650818,361.569702 
z"/>
<path fill="#F47958" opacity="1.000000" stroke="none" 
	d="
M449.960449,345.633118 
	C446.342957,345.670441 442.840210,345.408813 439.357086,344.985413 
	C432.495880,344.151337 425.645630,343.227509 418.548401,341.793518 
	C419.255554,336.165283 420.205170,331.084351 421.154785,326.003387 
	C431.526855,328.246796 441.920135,330.198669 453.035400,328.191681 
	C452.345581,333.812225 451.214813,339.536621 449.960449,345.633118 
z"/>
<path fill="#F89D2A" opacity="1.000000" stroke="none" 
	d="
M391.083252,405.005005 
	C396.793427,406.930359 402.597473,408.621124 408.183075,410.857605 
	C412.420746,412.554352 416.380157,414.946045 420.851074,417.057556 
	C418.425079,421.607605 415.611420,426.128662 412.551147,430.868774 
	C408.409088,428.492737 404.624298,425.708374 400.590240,423.350525 
	C395.614868,420.442566 390.432068,417.889496 385.121735,414.705017 
	C386.964111,411.152985 389.023682,408.078979 391.083252,405.005005 
z"/>
<path fill="#AD53DA" opacity="1.000000" stroke="none" 
	d="
M310.641144,68.928261 
	C309.678131,78.846245 308.309631,88.604851 307.091217,98.382172 
	C306.911194,99.826500 307.441223,101.359322 307.339447,103.096313 
	C303.023804,102.487518 299.011475,101.633621 294.999146,100.779724 
	C296.665863,89.800980 298.332581,78.822235 299.998047,67.398712 
	C303.425934,67.560944 306.855072,68.167938 310.641144,68.928261 
z"/>
<path fill="#F2B932" opacity="1.000000" stroke="none" 
	d="
M343.341125,456.692566 
	C344.688904,460.682953 346.036530,464.673370 347.384460,468.663696 
	C349.603668,475.233124 351.823029,481.802521 354.088989,488.759125 
	C354.135681,489.146332 354.087494,489.119598 353.760406,489.123474 
	C352.981079,489.589355 352.528809,490.051331 352.076569,490.513306 
	C348.941071,492.371094 345.805573,494.228851 342.319519,495.749664 
	C341.645935,491.991547 341.617737,488.510742 340.940552,485.161163 
	C339.367218,477.378723 337.480743,469.659637 335.932556,461.644073 
	C338.542999,459.813049 340.942047,458.252808 343.341125,456.692566 
z"/>
<path fill="#DEC04B" opacity="1.000000" stroke="none" 
	d="
M334.204163,500.144836 
	C330.713501,501.711395 327.222839,503.277954 323.365601,504.444885 
	C322.665955,498.004852 322.618103,491.930847 321.912476,485.934265 
	C321.313568,480.844727 319.955292,475.844543 319.148193,470.545166 
	C321.908508,469.184570 324.453583,468.083679 327.213257,467.270508 
	C328.618805,472.052460 330.028595,476.502380 330.947784,481.051453 
	C332.225922,487.376984 333.136353,493.776825 334.204163,500.144836 
z"/>
<path fill="#EABD3D" opacity="1.000000" stroke="none" 
	d="
M334.541382,500.085327 
	C333.136353,493.776825 332.225922,487.376984 330.947784,481.051453 
	C330.028595,476.502380 328.618805,472.052460 327.443481,467.027069 
	C330.213135,464.968842 332.967163,463.441864 335.721191,461.914856 
	C337.480743,469.659637 339.367218,477.378723 340.940552,485.161163 
	C341.617737,488.510742 341.645935,491.991547 341.975037,495.861938 
	C339.613617,497.549347 337.246124,498.787567 334.541382,500.085327 
z"/>
<path fill="#D1C35A" opacity="1.000000" stroke="none" 
	d="
M318.932983,470.804810 
	C319.955292,475.844543 321.313568,480.844727 321.912476,485.934265 
	C322.618103,491.930847 322.665955,498.004852 323.003540,504.464417 
	C320.252625,505.886078 317.497223,506.888580 314.371460,507.456909 
	C313.658325,499.481506 313.575165,491.915314 312.853516,484.410492 
	C312.535767,481.106049 310.919830,477.926453 310.141632,474.456116 
	C313.237610,473.082977 316.085297,471.943909 318.932983,470.804810 
z"/>
<path fill="#BAC56F" opacity="1.000000" stroke="none" 
	d="
M298.447113,512.099121 
	C296.775360,501.539917 295.485870,490.974609 294.351227,479.837891 
	C297.654816,478.458832 300.803589,477.651154 303.965088,477.319916 
	C304.650177,488.581909 305.322540,499.367523 305.994904,510.153137 
	C303.606415,510.799774 301.217896,511.446411 298.447113,512.099121 
z"/>
<path fill="#C5C566" opacity="1.000000" stroke="none" 
	d="
M306.384338,510.129089 
	C305.322540,499.367523 304.650177,488.581909 304.230774,477.098083 
	C306.286926,475.829926 308.090118,475.260040 309.893311,474.690186 
	C310.919830,477.926453 312.535767,481.106049 312.853516,484.410492 
	C313.575165,491.915314 313.658325,499.481506 314.002899,507.480225 
	C311.594421,508.660156 309.184082,509.382629 306.384338,510.129089 
z"/>
<path fill="#F7B628" opacity="1.000000" stroke="none" 
	d="
M352.377563,490.396118 
	C352.528809,490.051331 352.981079,489.589355 353.780212,489.105164 
	C353.644257,489.481628 353.161407,489.880280 352.377563,490.396118 
z"/>
<path fill="#EBEBEB" opacity="1.000000" stroke="none" 
	d="
M310.141632,474.456116 
	C308.090118,475.260040 306.286926,475.829926 304.218048,476.621643 
	C300.803589,477.651154 297.654816,478.458832 294.201599,479.447327 
	C291.198914,480.111267 288.500671,480.594330 285.401215,481.174255 
	C282.200043,481.630646 279.400085,481.990204 276.268616,482.528198 
	C272.221436,482.893250 268.505768,483.079834 264.400146,483.336670 
	C260.953949,483.287872 257.897797,483.168762 254.417511,483.101959 
	C249.303848,482.722168 244.614288,482.290070 239.480682,481.858215 
	C234.953583,480.932129 230.870544,480.005798 226.389191,479.084961 
	C220.584396,477.370667 215.177933,475.650879 209.383881,473.988708 
	C203.586609,471.352448 198.176941,468.658569 192.414062,465.881958 
	C186.295105,462.187836 180.529404,458.576416 174.408020,454.908447 
	C170.591858,451.665527 167.131393,448.479126 163.377426,445.143829 
	C157.371948,439.403717 151.659958,433.812500 145.686188,428.042419 
	C141.587524,422.333832 137.750656,416.804047 133.675461,411.062500 
	C129.920090,405.048248 126.403038,399.245819 122.576294,392.875610 
	C121.892181,391.818024 121.517776,391.328186 121.143372,390.838318 
	C121.143364,390.838318 121.111771,390.927704 121.108360,390.636902 
	C120.825127,390.146301 120.545296,389.946472 120.265465,389.746643 
	C120.265465,389.746643 120.521889,389.579132 120.543930,389.424347 
	C116.864044,380.685669 113.162102,372.101746 109.238380,363.238770 
	C107.350914,357.545776 105.685234,352.131897 103.878998,346.358307 
	C102.314133,339.539124 100.889816,333.079651 99.250839,326.303375 
	C98.045792,317.268555 97.055405,308.550568 95.983932,299.415649 
	C95.912033,298.239838 95.921211,297.480865 95.887909,295.936646 
	C95.721031,294.049713 95.596626,292.948059 95.544891,291.552948 
	C95.450684,290.680695 95.283806,290.101929 95.213608,289.092651 
	C95.263321,280.753174 95.216362,272.844238 95.169403,264.935303 
	C95.122887,264.502228 95.076378,264.069153 94.944984,263.317139 
	C95.955139,254.617111 97.050179,246.236069 98.132858,237.427277 
	C98.397774,235.889954 98.675049,234.780380 99.030212,233.001297 
	C99.100281,231.881027 99.092453,231.430252 99.084625,230.979492 
	C100.352058,226.239822 101.619492,221.500137 102.888138,216.378601 
	C106.581680,206.256744 110.274025,196.516785 114.067139,186.429367 
	C115.175980,186.402603 116.184044,186.723282 117.747055,187.330475 
	C122.539879,189.711349 126.777748,191.805695 131.339417,194.065094 
	C136.727890,195.950043 141.792557,197.669937 147.167053,199.586472 
	C154.309433,201.101212 161.141968,202.419296 168.400726,203.835480 
	C172.898193,203.991760 176.969421,204.049927 181.503296,204.069214 
	C186.979492,203.870468 191.993027,203.710617 197.396927,203.584595 
	C202.930847,202.513367 208.074402,201.408310 213.368973,200.337219 
	C213.732468,200.313599 213.896515,200.191040 214.263214,199.999390 
	C214.673492,199.943420 214.832672,199.891541 215.369110,199.823257 
	C219.880386,198.537674 224.062225,197.403824 228.136002,195.964218 
	C232.950531,194.262894 236.362289,190.966385 237.937668,186.032166 
	C240.028259,179.484375 238.169220,173.916458 233.449738,169.156570 
	C227.971252,163.631180 222.025162,165.142334 215.602448,168.053802 
	C209.693237,169.291748 204.180740,170.518814 198.227707,171.740509 
	C193.179291,172.002991 188.571411,172.270844 183.518600,172.434921 
	C178.042496,171.910370 173.011322,171.489594 167.623001,170.932114 
	C163.492920,169.918777 159.720016,169.042130 155.615173,168.014160 
	C149.850464,165.673782 144.417694,163.484726 138.693939,161.111496 
	C136.591873,159.978439 134.780792,159.029556 132.969727,158.080688 
	C133.179382,156.870697 132.992294,155.341049 133.665985,154.504944 
	C136.930862,150.452927 140.426773,146.587036 143.997513,142.355820 
	C144.470810,142.015213 144.720901,141.863998 145.233429,141.276611 
	C145.775879,140.657074 145.989395,140.363708 146.202911,140.070358 
	C150.779953,136.273392 155.357010,132.476440 160.116760,128.385468 
	C165.430481,124.951393 170.561508,121.811340 175.894440,118.382065 
	C176.096344,118.092857 176.049286,118.153633 176.350311,118.116592 
	C177.133942,117.747116 177.616547,117.414688 178.064240,117.051872 
	C178.029327,117.021484 178.050827,117.111526 178.310059,117.032303 
	C178.756653,116.649132 178.944016,116.345184 179.481354,116.029663 
	C181.569183,115.060066 183.307068,114.102058 185.044952,113.144051 
	C190.803513,111.151802 196.562073,109.159546 202.654953,107.011467 
	C206.096313,105.975128 209.203354,105.094627 212.652222,104.068008 
	C216.483490,103.188469 219.972946,102.455048 223.785156,101.552246 
	C229.142578,100.643074 234.177216,99.903290 239.602249,99.057930 
	C241.385071,98.953270 242.777496,98.954170 244.586029,98.912460 
	C255.645370,98.740860 266.288635,98.611877 277.387573,98.524178 
	C280.573730,98.833771 283.304199,99.102074 286.461365,99.397598 
	C288.024780,99.626678 289.161499,99.828537 290.887360,100.115250 
	C291.980713,100.249771 292.484955,100.299438 292.989197,100.349098 
	C293.426605,100.497887 293.864044,100.646667 294.650299,100.787590 
	C299.011475,101.633621 303.023804,102.487518 307.440460,103.433212 
	C311.612152,104.690117 315.379486,105.855217 319.660156,107.158112 
	C320.369446,107.473946 320.598877,107.547600 320.861725,107.516861 
	C321.041992,107.604752 321.222290,107.692635 321.700134,107.824181 
	C324.645203,108.933571 327.292694,109.999290 330.528687,111.325462 
	C331.733826,111.764565 332.350403,111.943230 332.966980,112.121887 
	C332.966980,112.121887 332.929474,112.068153 332.914520,112.098862 
	C339.009613,115.436111 345.119629,118.742653 351.557617,122.189255 
	C356.308472,125.445976 360.731384,128.562622 365.390289,131.901947 
	C370.549957,136.998856 375.473633,141.873093 380.683014,146.922211 
	C383.326874,150.220825 385.685059,153.344574 388.422211,156.970383 
	C383.198944,159.722641 378.416046,162.242859 372.939880,164.919678 
	C365.783081,167.028427 359.319611,168.980560 352.431458,170.933563 
	C346.664886,171.430939 341.322998,171.927444 335.527222,172.336090 
	C329.713837,171.866745 324.354309,171.485245 318.597107,171.015991 
	C312.797424,169.627853 307.395355,168.327469 301.641083,166.910782 
	C296.199585,164.116623 291.648193,165.265778 287.555786,168.879166 
	C279.148926,176.302032 280.426453,189.657059 290.272705,195.027039 
	C293.544647,196.811493 297.398376,197.529160 301.343384,198.870300 
	C304.144775,199.640274 306.588928,200.274506 309.395874,201.061584 
	C315.507324,202.077728 321.255951,202.941010 327.445129,203.883377 
	C333.269989,204.027206 338.654327,204.091949 344.494812,204.191925 
	C352.298645,203.144745 359.646271,202.062347 366.993896,200.979965 
	C371.830109,199.620865 376.666290,198.261780 382.103333,196.620331 
	C383.181519,195.964203 383.658844,195.590439 384.136169,195.216644 
	C384.136139,195.216644 384.257080,195.417709 384.373932,195.451752 
	C391.372223,192.357498 398.253632,189.229218 405.484344,186.086639 
	C408.742279,193.527130 411.650940,200.981918 414.772522,208.720840 
	C416.029877,212.846970 417.074341,216.688950 418.257507,220.852875 
	C419.634521,227.514801 420.872833,233.854828 422.217285,240.598633 
	C422.891724,245.722961 423.459991,250.443497 424.106018,255.586594 
	C424.279266,257.816223 424.374695,259.623322 424.536835,262.018616 
	C424.623322,262.853882 424.724976,263.060822 424.908508,263.227631 
	C424.944122,266.189423 424.979706,269.151245 425.074768,272.557434 
	C425.084381,278.359009 425.034485,283.716156 425.034851,289.539154 
	C424.667511,296.020630 424.249878,302.036255 423.858612,308.511353 
	C422.946503,314.377930 422.008087,319.785004 421.112244,325.597748 
	C420.205170,331.084351 419.255554,336.165283 418.178986,341.623657 
	C416.624786,346.887512 415.197510,351.773926 413.716187,357.015320 
	C411.873871,362.012268 410.085602,366.654266 408.239868,371.652161 
	C405.945618,376.789795 403.708832,381.571533 401.380005,386.682251 
	C397.930206,392.785339 394.572418,398.559418 391.148926,404.669250 
	C389.023682,408.078979 386.964111,411.152985 384.779480,414.551331 
	C381.126556,419.255341 377.598694,423.635010 373.943787,428.311798 
	C367.204529,435.159607 360.592316,441.710297 353.770569,448.535248 
	C350.321777,451.270813 347.082458,453.732086 343.592163,456.442963 
	C340.942047,458.252808 338.542999,459.813049 335.932556,461.644073 
	C332.967163,463.441864 330.213135,464.968842 327.228882,466.739319 
	C324.453583,468.083679 321.908508,469.184570 319.148193,470.545166 
	C316.085297,471.943909 313.237610,473.082977 310.141632,474.456116 
M138.999496,242.988434 
	C138.999496,242.988434 138.952499,242.935913 138.469986,243.291733 
	C138.249161,243.839737 138.028336,244.387741 137.869003,244.882919 
	C137.869003,244.882919 137.802551,244.836441 137.271545,245.269379 
	C127.145096,263.797516 128.357193,281.855377 141.080719,298.399750 
	C153.324799,314.320709 170.036224,320.368073 190.775803,316.993988 
	C194.532990,315.697144 198.290192,314.400299 202.749756,312.994415 
	C205.835495,311.001465 208.921234,309.008545 212.629822,306.773529 
	C215.104187,304.211853 217.578568,301.650177 220.621887,298.732574 
	C222.165970,296.288177 223.710037,293.843781 225.764740,290.897491 
	C235.273941,272.890961 232.540359,250.668182 218.804749,236.194778 
	C215.307556,233.418610 211.810379,230.642441 207.886063,227.302094 
	C203.590240,225.531097 199.294434,223.760101 194.311081,221.627304 
	C190.855301,221.134323 187.399506,220.641342 183.041733,220.015884 
	C178.334579,220.480606 173.627441,220.945343 168.218582,221.514465 
	C167.434067,221.931473 166.649567,222.348480 165.788223,222.558029 
	C165.788223,222.558029 165.568008,222.579102 164.856018,222.584808 
	C160.867691,224.582779 156.879364,226.580750 152.345428,228.856567 
	C152.159592,229.191025 151.973755,229.525482 151.792435,229.669174 
	C151.792435,229.669174 151.602539,229.650665 150.973358,229.838303 
	C147.643219,233.220703 144.313080,236.603104 140.499573,240.324615 
	C140.259537,240.855408 140.019516,241.386185 139.904510,241.932159 
	C139.904510,241.932159 139.894577,241.806610 139.386154,242.004410 
	C139.234604,242.326248 139.083054,242.648087 138.999496,242.988434 
M337.916473,317.265167 
	C340.946930,317.086884 343.977356,316.908600 347.783386,316.761658 
	C352.262451,315.215546 356.741516,313.669403 361.810181,311.760986 
	C363.683777,310.772583 365.688812,309.971710 367.409790,308.765533 
	C379.187500,300.510986 386.424438,289.370941 388.798828,274.160675 
	C388.807861,271.107635 388.816864,268.054565 388.903229,264.189240 
	C387.891571,260.141693 386.879944,256.094116 385.804260,251.333923 
	C383.860962,247.895447 381.917633,244.456985 379.749268,240.385849 
	C376.547089,237.167465 373.344910,233.949081 369.753113,230.191360 
	C363.031036,224.926102 355.505127,221.518097 346.169373,220.115097 
	C344.143402,220.022507 342.117462,219.929932 339.431702,219.541855 
	C333.570892,220.535141 327.710052,221.528427 321.125031,222.724014 
	C317.387054,224.692200 313.649048,226.660385 309.348114,228.856216 
	C308.889893,229.234421 308.431702,229.612625 307.528870,230.137436 
	C307.240326,230.297958 307.049500,230.536591 306.343018,231.142548 
	C304.445190,233.001770 302.448029,234.770798 300.665222,236.734482 
	C286.629608,252.194458 284.170654,275.931946 295.039276,292.743958 
	C298.030945,296.499268 301.022644,300.254547 304.438049,304.516541 
	C308.949341,307.372864 313.460632,310.229187 318.478607,313.584564 
	C321.953613,314.529358 325.428619,315.474152 329.516510,316.753204 
	C332.014862,316.892181 334.513214,317.031158 337.916473,317.265167 
z"/>
<path fill="#3F71FB" opacity="1.000000" stroke="none" 
	d="
M131.015625,193.900040 
	C126.777748,191.805695 122.539879,189.711349 118.076523,187.350555 
	C124.128563,183.942017 122.691078,177.574509 124.005653,172.358444 
	C125.388893,166.869965 127.464638,161.810135 132.733490,158.325439 
	C134.780792,159.029556 136.591873,159.978439 138.683914,161.484879 
	C137.619125,168.475494 136.764969,175.067398 134.755661,181.286057 
	C133.404449,185.467972 136.268448,190.943970 131.015625,193.900040 
z"/>
<path fill="#AD53DA" opacity="1.000000" stroke="none" 
	d="
M292.909180,100.127914 
	C292.484955,100.299438 291.980713,100.249771 291.239990,100.091591 
	C291.612061,99.957626 292.220612,99.932175 292.909180,100.127914 
z"/>
<path fill="#3380F7" opacity="1.000000" stroke="none" 
	d="
M98.862610,231.118713 
	C99.092453,231.430252 99.100281,231.881027 99.004951,232.656982 
	C98.814728,232.407425 98.727661,231.832672 98.862610,231.118713 
z"/>
<path fill="#3380F7" opacity="1.000000" stroke="none" 
	d="
M94.856445,265.227295 
	C95.216362,272.844238 95.263321,280.753174 95.188377,289.399536 
	C95.201721,290.706787 95.336975,291.276611 95.472229,291.846436 
	C95.596626,292.948059 95.721031,294.049713 95.799103,295.566345 
	C95.166672,292.623505 94.580574,289.265686 93.989395,285.454529 
	C94.170715,278.507233 94.357101,272.013275 94.856445,265.227295 
z"/>
<path fill="#35A0D7" opacity="1.000000" stroke="none" 
	d="
M121.144737,391.185364 
	C121.517776,391.328186 121.892181,391.818024 122.381676,392.607361 
	C122.046539,392.448700 121.596321,391.990570 121.144737,391.185364 
z"/>
<path fill="#35A0D7" opacity="1.000000" stroke="none" 
	d="
M120.303932,390.016479 
	C120.545296,389.946472 120.825127,390.146301 121.154266,390.625061 
	C120.916519,390.698120 120.629456,390.492249 120.303932,390.016479 
z"/>
<path fill="#3B72FD" opacity="1.000000" stroke="none" 
	d="
M145.946823,140.179245 
	C145.989395,140.363708 145.775879,140.657074 145.312164,141.066467 
	C145.271530,140.884369 145.481140,140.586258 145.946823,140.179245 
z"/>
<path fill="#556AF8" opacity="1.000000" stroke="none" 
	d="
M185.032593,112.704391 
	C183.307068,114.102058 181.569183,115.060066 179.241806,116.140442 
	C178.451828,116.545715 178.251328,116.828621 178.050827,117.111526 
	C178.050827,117.111526 178.029327,117.021484 177.750641,117.059738 
	C176.997726,117.449867 176.523514,117.801750 176.049286,118.153633 
	C176.049286,118.153633 176.096344,118.092857 176.116821,118.126068 
	C172.064529,118.255051 171.672363,116.732613 171.577606,112.493462 
	C171.378098,103.567772 169.373016,94.682449 168.059143,85.393524 
	C168.315735,84.886818 168.570786,84.697868 168.897003,84.232956 
	C169.564346,83.845535 170.109222,83.664803 170.836273,83.255936 
	C171.563889,82.847733 172.109344,82.667656 172.838562,82.260765 
	C173.565918,81.850227 174.109512,81.666504 174.835510,81.255508 
	C175.863190,80.862869 176.708466,80.697502 177.776672,80.295380 
	C183.561569,79.819992 183.462326,84.470222 183.780167,87.707436 
	C184.580093,95.855247 184.654785,104.074265 185.032593,112.704391 
z"/>
<path fill="#D54FBE" opacity="1.000000" stroke="none" 
	d="
M352.856110,170.932678 
	C359.319611,168.980560 365.783081,167.028427 372.623474,165.075180 
	C377.413818,175.009293 371.839264,183.263138 368.592224,191.956909 
	C367.600891,194.611191 367.310822,197.527390 366.846741,200.651810 
	C359.646271,202.062347 352.298645,203.144745 344.538635,203.838898 
	C346.177246,200.765167 349.190399,198.364700 350.087128,195.337311 
	C352.222778,188.127777 353.415924,180.632690 354.792480,173.216309 
	C354.907532,172.596268 353.536621,171.700409 352.856110,170.932678 
z"/>
<path fill="#E151AD" opacity="1.000000" stroke="none" 
	d="
M383.789917,195.195343 
	C383.658844,195.590439 383.181519,195.964203 382.395233,196.437805 
	C382.538727,196.083115 382.991180,195.628571 383.789917,195.195343 
z"/>
<path fill="#EE5B8C" opacity="1.000000" stroke="none" 
	d="
M424.911621,263.066010 
	C424.724976,263.060822 424.623322,262.853882 424.676025,262.450104 
	C424.839386,262.487366 424.894775,262.691040 424.911621,263.066010 
z"/>
<path fill="#C74FCB" opacity="1.000000" stroke="none" 
	d="
M332.772095,111.845940 
	C332.350403,111.943230 331.733826,111.764565 330.881958,111.358276 
	C331.290192,111.277084 331.933716,111.423538 332.772095,111.845940 
z"/>
<path fill="#BF50D1" opacity="1.000000" stroke="none" 
	d="
M320.726257,107.398056 
	C320.598877,107.547600 320.369446,107.473946 320.044312,107.160133 
	C320.159729,107.057968 320.384949,107.142929 320.726257,107.398056 
z"/>
<path fill="#3874FB" opacity="1.000000" stroke="none" 
	d="
M189.980621,316.940094 
	C170.036224,320.368073 153.324799,314.320709 141.080719,298.399750 
	C128.357193,281.855377 127.145096,263.797516 137.542740,245.479568 
	C135.988007,253.786072 136.330658,261.367218 142.955872,267.616821 
	C143.791290,266.716797 144.531128,265.919739 145.270309,265.530090 
	C145.745438,269.552612 145.801514,273.284241 146.767838,276.763062 
	C151.609238,294.192230 165.457565,303.323181 185.781967,303.199585 
	C185.118820,304.623474 183.941345,306.087677 184.292068,306.819885 
	C185.960327,310.302490 188.044495,313.585815 189.980621,316.940094 
z"/>
<path fill="#BF50D1" opacity="1.000000" stroke="none" 
	d="
M321.849243,222.521729 
	C327.710052,221.528427 333.570892,220.535141 339.513062,219.984894 
	C338.729218,221.986603 337.321259,223.467850 337.086182,225.116379 
	C335.437744,236.676193 333.992310,248.265823 332.593842,259.859406 
	C332.406891,261.409607 332.848816,263.035675 332.539307,264.707703 
	C327.385468,264.727966 322.691833,264.667114 317.998993,264.162781 
	C317.954498,251.500854 318.144501,239.314606 321.625732,227.435318 
	C322.073639,225.906891 321.792603,224.164825 321.849243,222.521729 
z"/>
<path fill="#AD53DA" opacity="1.000000" stroke="none" 
	d="
M294.883820,292.068329 
	C284.170654,275.931946 286.629608,252.194458 300.665222,236.734482 
	C302.448029,234.770798 304.445190,233.001770 306.671021,231.406250 
	C306.329529,238.128296 305.944916,244.633041 304.902649,251.030655 
	C304.028137,256.398590 302.019501,261.750061 308.571289,264.684753 
	C306.558380,264.897675 304.970978,265.027527 303.069305,265.183105 
	C303.367340,268.776764 303.625427,271.888580 303.533173,275.053894 
	C301.796204,277.338715 300.195831,279.468292 299.074158,281.825684 
	C297.491699,285.151581 296.263489,288.645966 294.883820,292.068329 
z"/>
<path fill="#C350CD" opacity="1.000000" stroke="none" 
	d="
M327.004608,203.804306 
	C321.255951,202.941010 315.507324,202.077728 309.644714,200.814270 
	C313.852844,197.763641 312.861694,192.987000 313.944641,189.090317 
	C315.612122,183.090454 314.355225,176.278793 318.994751,171.103760 
	C324.354309,171.485245 329.713837,171.866745 335.464050,172.673767 
	C335.689362,173.891708 335.333282,174.697372 335.387360,175.474487 
	C336.118134,185.969437 334.779816,195.833435 327.004608,203.804306 
z"/>
<path fill="#C751C8" opacity="1.000000" stroke="none" 
	d="
M332.999481,264.626587 
	C332.848816,263.035675 332.406891,261.409607 332.593842,259.859406 
	C333.992310,248.265823 335.437744,236.676193 337.086182,225.116379 
	C337.321259,223.467850 338.729218,221.986603 339.842957,220.132645 
	C342.117462,219.929932 344.143402,220.022507 346.698425,220.552399 
	C351.573303,222.195374 354.008759,224.444565 352.052582,229.354279 
	C351.709503,230.215271 352.112427,231.343918 351.982910,232.324097 
	C350.485107,243.657822 347.218567,254.450638 341.556458,264.718048 
	C338.407562,264.740845 335.703522,264.683716 332.999481,264.626587 
z"/>
<path fill="#5969F8" opacity="1.000000" stroke="none" 
	d="
M168.920288,221.410065 
	C173.627441,220.945343 178.334579,220.480606 183.239807,220.320190 
	C182.296844,222.605118 180.351273,224.515793 180.171799,226.580017 
	C179.708878,231.904190 179.164597,237.475784 180.235489,242.619003 
	C181.829971,250.276825 178.914505,259.757111 187.530426,264.906311 
	C182.708054,264.882904 178.346649,264.801880 173.884430,264.394897 
	C170.149292,263.053864 168.731216,260.227081 168.177933,256.883820 
	C167.644318,253.659378 167.248138,250.399185 167.026245,247.138733 
	C166.469452,238.957001 166.045349,230.766235 165.568024,222.579102 
	C165.568008,222.579102 165.788223,222.558029 166.206665,222.727814 
	C167.390152,222.401749 168.155212,221.905899 168.920288,221.410065 
z"/>
<path fill="#8E5AE7" opacity="1.000000" stroke="none" 
	d="
M215.999191,168.042908 
	C222.025162,165.142334 227.971252,163.631180 233.449738,169.156570 
	C238.169220,173.916458 240.028259,179.484375 237.937668,186.032166 
	C236.362289,190.966385 232.950531,194.262894 228.136002,195.964218 
	C224.062225,197.403824 219.880386,198.537674 215.440643,199.423233 
	C215.560898,194.116699 216.221985,189.199875 216.349686,184.269226 
	C216.489578,178.867096 216.137085,173.452225 215.999191,168.042908 
z"/>
<path fill="#8E5AE7" opacity="1.000000" stroke="none" 
	d="
M219.107178,236.774338 
	C232.540359,250.668182 235.273941,272.890961 225.331772,290.811279 
	C221.975128,284.153290 219.051453,277.581512 216.081299,270.582306 
	C216.022827,268.435944 216.010849,266.716949 215.999268,264.547058 
	C216.289322,260.525665 217.464645,256.744507 216.676254,253.430527 
	C215.228928,247.346634 217.086243,242.139343 219.107178,236.774338 
z"/>
<path fill="#CD4FC5" opacity="1.000000" stroke="none" 
	d="
M327.445129,203.883377 
	C334.779816,195.833435 336.118134,185.969437 335.387360,175.474487 
	C335.333282,174.697372 335.689362,173.891708 335.917908,172.761627 
	C341.322998,171.927444 346.664886,171.430939 352.431458,170.933563 
	C353.536621,171.700409 354.907532,172.596268 354.792480,173.216309 
	C353.415924,180.632690 352.222778,188.127777 350.087128,195.337311 
	C349.190399,198.364700 346.177246,200.765167 344.082428,203.803680 
	C338.654327,204.091949 333.269989,204.027206 327.445129,203.883377 
z"/>
<path fill="#CD52C1" opacity="1.000000" stroke="none" 
	d="
M342.001282,264.638123 
	C347.218567,254.450638 350.485107,243.657822 351.982910,232.324097 
	C352.112427,231.343918 351.709503,230.215271 352.052582,229.354279 
	C354.008759,224.444565 351.573303,222.195374 347.119080,220.668793 
	C355.505127,221.518097 363.031036,224.926102 369.780640,230.794525 
	C364.048523,241.998947 358.411316,252.651047 355.542877,264.724304 
	C350.722931,264.749359 346.362122,264.693756 342.001282,264.638123 
z"/>
<path fill="#6464F5" opacity="1.000000" stroke="none" 
	d="
M187.991379,264.848663 
	C178.914505,259.757111 181.829971,250.276825 180.235489,242.619003 
	C179.164597,237.475784 179.708878,231.904190 180.171799,226.580017 
	C180.351273,224.515793 182.296844,222.605118 183.690796,220.386444 
	C187.399506,220.641342 190.855301,221.134323 194.496582,222.159775 
	C194.121399,225.074524 193.115723,227.452942 193.094925,229.839920 
	C193.054718,234.458344 193.351059,239.107910 193.904663,243.696716 
	C194.757889,250.769363 195.945007,257.801727 196.544052,264.909119 
	C193.395538,264.927612 190.693451,264.888153 187.991379,264.848663 
z"/>
<path fill="#4C6CFA" opacity="1.000000" stroke="none" 
	d="
M165.212021,222.581955 
	C166.045349,230.766235 166.469452,238.957001 167.026245,247.138733 
	C167.248138,250.399185 167.644318,253.659378 168.177933,256.883820 
	C168.731216,260.227081 170.149292,263.053864 173.426880,264.464294 
	C169.042236,264.806671 165.014359,264.753662 160.868301,264.360687 
	C154.762329,263.432037 153.581589,259.170929 153.255356,254.236710 
	C152.713501,246.040771 152.154388,237.845947 151.602539,229.650665 
	C151.602539,229.650665 151.792435,229.669174 152.066650,229.644867 
	C152.524261,229.273285 152.707642,228.925995 152.891037,228.578705 
	C156.879364,226.580750 160.867691,224.582779 165.212021,222.581955 
z"/>
<path fill="#556AF8" opacity="1.000000" stroke="none" 
	d="
M155.947113,168.165497 
	C159.720016,169.042130 163.492920,169.918777 167.480286,171.263275 
	C167.144180,178.208588 166.175781,184.687149 166.193130,191.163086 
	C166.204300,195.330917 163.716614,200.101227 167.974503,203.737381 
	C161.141968,202.419296 154.309433,201.101212 147.242966,199.179657 
	C148.340042,192.395645 149.665436,186.213882 151.003983,180.034958 
	C151.926147,175.778076 150.572128,170.569199 155.947113,168.165497 
z"/>
<path fill="#805DEC" opacity="1.000000" stroke="none" 
	d="
M215.602448,168.053802 
	C216.137085,173.452225 216.489578,178.867096 216.349686,184.269226 
	C216.221985,189.199875 215.560898,194.116699 215.063385,199.439651 
	C214.832672,199.891541 214.673492,199.943420 214.121918,200.027985 
	C213.547409,200.117111 213.376892,200.197983 213.217957,200.303253 
	C208.074402,201.408310 202.930847,202.513367 197.516266,203.250656 
	C197.828964,201.415756 198.767838,199.986832 198.930450,198.474426 
	C199.439713,193.738159 199.938171,188.968231 199.901291,184.215530 
	C199.869019,180.056030 199.107574,175.902206 198.668259,171.745865 
	C204.180740,170.518814 209.693237,169.291748 215.602448,168.053802 
z"/>
<path fill="#6464F5" opacity="1.000000" stroke="none" 
	d="
M168.400726,203.835480 
	C163.716614,200.101227 166.204300,195.330917 166.193130,191.163086 
	C166.175781,184.687149 167.144180,178.208588 167.837448,171.399979 
	C173.011322,171.489594 178.042496,171.910370 183.530838,172.861115 
	C183.005569,183.630096 182.023102,193.869095 181.040649,204.108093 
	C176.969421,204.049927 172.898193,203.991760 168.400726,203.835480 
z"/>
<path fill="#4C6CFA" opacity="1.000000" stroke="none" 
	d="
M155.615173,168.014160 
	C150.572128,170.569199 151.926147,175.778076 151.003983,180.034958 
	C149.665436,186.213882 148.340042,192.395645 146.933136,198.983017 
	C141.792557,197.669937 136.727890,195.950043 131.339417,194.065094 
	C136.268448,190.943970 133.404449,185.467972 134.755661,181.286057 
	C136.764969,175.067398 137.619125,168.475494 138.974915,161.669052 
	C144.417694,163.484726 149.850464,165.673782 155.615173,168.014160 
z"/>
<path fill="#7161F2" opacity="1.000000" stroke="none" 
	d="
M181.503296,204.069214 
	C182.023102,193.869095 183.005569,183.630096 183.975784,172.964905 
	C188.571411,172.270844 193.179291,172.002991 198.227707,171.740509 
	C199.107574,175.902206 199.869019,180.056030 199.901291,184.215530 
	C199.938171,188.968231 199.439713,193.738159 198.930450,198.474426 
	C198.767838,199.986832 197.828964,201.415756 197.125916,203.216827 
	C191.993027,203.710617 186.979492,203.870468 181.503296,204.069214 
z"/>
<path fill="#B951D4" opacity="1.000000" stroke="none" 
	d="
M318.597107,171.015991 
	C314.355225,176.278793 315.612122,183.090454 313.944641,189.090317 
	C312.861694,192.987000 313.852844,197.763641 309.281921,200.661407 
	C306.588928,200.274506 304.144775,199.640274 301.248291,198.537506 
	C297.019470,196.585190 296.617432,193.518417 297.049438,190.066971 
	C297.679016,185.037201 298.092346,179.965820 299.037598,174.995819 
	C299.559540,172.251465 300.978638,169.677734 301.993286,167.027084 
	C307.395355,168.327469 312.797424,169.627853 318.597107,171.015991 
z"/>
<path fill="#B451D7" opacity="1.000000" stroke="none" 
	d="
M308.996765,264.601715 
	C302.019501,261.750061 304.028137,256.398590 304.902649,251.030655 
	C305.944916,244.633041 306.329529,238.128296 306.977722,231.261642 
	C307.049500,230.536591 307.240326,230.297958 308.072876,230.024841 
	C309.048279,229.484344 309.479675,229.056458 309.911072,228.628571 
	C313.649048,226.660385 317.387054,224.692200 321.487152,222.622864 
	C321.792603,224.164825 322.073639,225.906891 321.625732,227.435318 
	C318.144501,239.314606 317.954498,251.500854 317.554993,264.246124 
	C314.405731,264.715881 311.701263,264.658783 308.996765,264.601715 
z"/>
<path fill="#3F71FB" opacity="1.000000" stroke="none" 
	d="
M151.287949,229.744476 
	C152.154388,237.845947 152.713501,246.040771 153.255356,254.236710 
	C153.581589,259.170929 154.762329,263.432037 160.408142,264.432617 
	C155.134445,264.937225 150.202713,265.029938 145.270981,265.122681 
	C144.531128,265.919739 143.791290,266.716797 142.955872,267.616821 
	C136.330658,261.367218 135.988007,253.786072 137.808243,245.263092 
	C137.802551,244.836441 137.869003,244.882919 138.114624,244.763107 
	C138.557648,244.074173 138.755066,243.505035 138.952499,242.935913 
	C138.952499,242.935913 138.999496,242.988434 139.196655,242.852234 
	C139.560745,242.412888 139.727661,242.109756 139.894577,241.806610 
	C139.894577,241.806610 139.904510,241.932159 140.121368,241.791077 
	C140.553116,241.095154 140.768021,240.540344 140.982941,239.985504 
	C144.313080,236.603104 147.643219,233.220703 151.287949,229.744476 
z"/>
<path fill="#7161F2" opacity="1.000000" stroke="none" 
	d="
M196.990494,264.851196 
	C195.945007,257.801727 194.757889,250.769363 193.904663,243.696716 
	C193.351059,239.107910 193.054718,234.458344 193.094925,229.839920 
	C193.115723,227.452942 194.121399,225.074524 194.840363,222.340668 
	C199.294434,223.760101 203.590240,225.531097 207.692032,227.695496 
	C206.998672,229.531570 206.198166,230.944794 206.053650,232.422195 
	C205.508682,237.993622 205.687332,243.684998 204.627335,249.143555 
	C203.482239,255.040314 204.440872,260.067230 207.536621,264.815369 
	C203.719177,264.872528 200.354843,264.861877 196.990494,264.851196 
z"/>
<path fill="#E95E90" opacity="1.000000" stroke="none" 
	d="
M388.825897,265.001526 
	C388.816864,268.054565 388.807861,271.107635 388.374329,274.688416 
	C385.209503,278.068146 382.851318,281.478638 379.655731,283.665283 
	C370.783417,289.736328 366.193451,298.900879 361.223450,307.817047 
	C360.612793,308.912598 361.192505,310.671661 361.220581,312.123260 
	C356.741516,313.669403 352.262451,315.215546 347.452148,316.413696 
	C348.853729,312.189423 350.750671,308.372589 352.192261,304.390869 
	C352.512329,303.506836 351.226654,302.041443 350.923248,300.581909 
	C362.523071,295.863342 369.482239,287.444855 373.454590,275.996643 
	C375.643829,275.074036 377.650360,274.401276 379.229523,273.177155 
	C382.547241,270.605377 385.640503,267.744019 388.825897,265.001526 
z"/>
<path fill="#AD53DA" opacity="1.000000" stroke="none" 
	d="
M301.641083,166.910782 
	C300.978638,169.677734 299.559540,172.251465 299.037598,174.995819 
	C298.092346,179.965820 297.679016,185.037201 297.049438,190.066971 
	C296.617432,193.518417 297.019470,196.585190 300.891052,198.401733 
	C297.398376,197.529160 293.544647,196.811493 290.272705,195.027039 
	C280.426453,189.657059 279.148926,176.302032 287.555786,168.879166 
	C291.648193,165.265778 296.199585,164.116623 301.641083,166.910782 
z"/>
<path fill="#7D5EED" opacity="1.000000" stroke="none" 
	d="
M207.989700,264.747498 
	C204.440872,260.067230 203.482239,255.040314 204.627335,249.143555 
	C205.687332,243.684998 205.508682,237.993622 206.053650,232.422195 
	C206.198166,230.944794 206.998672,229.531570 207.905594,227.977585 
	C211.810379,230.642441 215.307556,233.418610 218.955963,236.484558 
	C217.086243,242.139343 215.228928,247.346634 216.676254,253.430527 
	C217.464645,256.744507 216.289322,260.525665 215.555222,264.515564 
	C212.737091,264.872498 210.363403,264.809998 207.989700,264.747498 
z"/>
<path fill="#D455B7" opacity="1.000000" stroke="none" 
	d="
M356.001984,264.643585 
	C358.411316,252.651047 364.048523,241.998947 369.975433,231.064178 
	C373.344910,233.949081 376.547089,237.167465 379.562500,240.855499 
	C377.959503,243.126495 376.256653,244.772583 375.181091,246.758438 
	C371.993500,252.643845 369.053253,258.663208 365.567078,264.715698 
	C362.079254,264.748688 359.040619,264.696136 356.001984,264.643585 
z"/>
<path fill="#F05F82" opacity="1.000000" stroke="none" 
	d="
M361.515381,311.942139 
	C361.192505,310.671661 360.612793,308.912598 361.223450,307.817047 
	C366.193451,298.900879 370.783417,289.736328 379.655731,283.665283 
	C382.851318,281.478638 385.209503,278.068146 388.238708,275.127045 
	C386.424438,289.370941 379.187500,300.510986 367.409790,308.765533 
	C365.688812,309.971710 363.683777,310.772583 361.515381,311.942139 
z"/>
<path fill="#B451D7" opacity="1.000000" stroke="none" 
	d="
M294.961548,292.406128 
	C296.263489,288.645966 297.491699,285.151581 299.074158,281.825684 
	C300.195831,279.468292 301.796204,277.338715 303.647644,275.408630 
	C306.105133,280.405823 308.097870,285.101868 310.060608,290.191528 
	C308.025146,295.060059 306.019745,299.534943 304.014313,304.009857 
	C301.022644,300.254547 298.030945,296.499268 294.961548,292.406128 
z"/>
<path fill="#E151AD" opacity="1.000000" stroke="none" 
	d="
M366.016296,264.630188 
	C369.053253,258.663208 371.993500,252.643845 375.181091,246.758438 
	C376.256653,244.772583 377.959503,243.126495 379.674988,241.171829 
	C381.917633,244.456985 383.860962,247.895447 385.604187,251.938232 
	C381.542267,256.720886 377.680420,260.899231 373.392334,265.010376 
	C370.649506,264.838898 368.332916,264.734528 366.016296,264.630188 
z"/>
<path fill="#C350CD" opacity="1.000000" stroke="none" 
	d="
M304.226196,304.263184 
	C306.019745,299.534943 308.025146,295.060059 310.389526,290.290070 
	C314.504089,292.975983 318.259705,295.956940 321.868042,299.271179 
	C320.471161,304.098114 319.221558,308.591827 317.971924,313.085510 
	C313.460632,310.229187 308.949341,307.372864 304.226196,304.263184 
z"/>
<path fill="#4C6CFA" opacity="1.000000" stroke="none" 
	d="
M190.378204,316.967041 
	C188.044495,313.585815 185.960327,310.302490 184.292068,306.819885 
	C183.941345,306.087677 185.118820,304.623474 186.101318,303.019440 
	C189.730499,301.662292 192.850479,300.782227 195.986771,300.281769 
	C198.017853,304.808716 200.032608,308.956085 202.047363,313.103455 
	C198.290192,314.400299 194.532990,315.697144 190.378204,316.967041 
z"/>
<path fill="#E9559B" opacity="1.000000" stroke="none" 
	d="
M373.818542,265.077545 
	C377.680420,260.899231 381.542267,256.720886 385.636230,252.294556 
	C386.879944,256.094116 387.891571,260.141693 388.864563,264.595398 
	C385.640503,267.744019 382.547241,270.605377 379.229523,273.177155 
	C377.650360,274.401276 375.643829,275.074036 373.441742,275.575958 
	C373.307922,271.796082 373.563232,268.436829 373.818542,265.077545 
z"/>
<path fill="#CD52C1" opacity="1.000000" stroke="none" 
	d="
M318.225281,313.335022 
	C319.221558,308.591827 320.471161,304.098114 322.233887,299.332581 
	C325.828064,300.095551 328.909149,301.130310 331.979492,302.548248 
	C330.947052,307.427246 329.925323,311.923096 328.903625,316.418915 
	C325.428619,315.474152 321.953613,314.529358 318.225281,313.335022 
z"/>
<path fill="#5969F8" opacity="1.000000" stroke="none" 
	d="
M202.398560,313.048950 
	C200.032608,308.956085 198.017853,304.808716 196.209396,300.036316 
	C198.854736,297.901611 201.293777,296.391998 204.026840,295.071625 
	C206.882919,299.179138 209.444962,303.097351 212.006989,307.015594 
	C208.921234,309.008545 205.835495,311.001465 202.398560,313.048950 
z"/>
<path fill="#7161F2" opacity="1.000000" stroke="none" 
	d="
M212.318405,306.894562 
	C209.444962,303.097351 206.882919,299.179138 204.205292,294.782898 
	C206.444305,291.539673 208.798904,288.774414 211.433807,286.187347 
	C214.493729,290.606537 217.273331,294.847534 220.052933,299.088501 
	C217.578568,301.650177 215.104187,304.211853 212.318405,306.894562 
z"/>
<path fill="#805DEC" opacity="1.000000" stroke="none" 
	d="
M220.337402,298.910522 
	C217.273331,294.847534 214.493729,290.606537 211.536896,285.851990 
	C212.949036,280.562225 214.538406,275.785950 216.127777,271.009705 
	C219.051453,277.581512 221.975128,284.153290 225.076447,291.062225 
	C223.710037,293.843781 222.165970,296.288177 220.337402,298.910522 
z"/>
<path fill="#E654A3" opacity="1.000000" stroke="none" 
	d="
M350.680298,300.843689 
	C351.226654,302.041443 352.512329,303.506836 352.192261,304.390869 
	C350.750671,308.372589 348.853729,312.189423 347.064362,316.398010 
	C343.977356,316.908600 340.946930,317.086884 337.586792,316.874664 
	C338.841400,311.823486 340.425690,307.162811 342.408508,302.388550 
	C345.431458,301.797852 348.055878,301.320770 350.680298,300.843689 
z"/>
<path fill="#D455B7" opacity="1.000000" stroke="none" 
	d="
M342.009979,302.502136 
	C340.425690,307.162811 338.841400,311.823486 337.134338,316.827148 
	C334.513214,317.031158 332.014862,316.892181 329.210083,316.586060 
	C329.925323,311.923096 330.947052,307.427246 332.434937,302.524414 
	C335.937378,302.245636 338.973694,302.373871 342.009979,302.502136 
z"/>
<path fill="#4C6CFA" opacity="1.000000" stroke="none" 
	d="
M168.569427,221.462265 
	C168.155212,221.905899 167.390152,222.401749 166.245071,222.831543 
	C166.649567,222.348480 167.434067,221.931473 168.569427,221.462265 
z"/>
<path fill="#3874FB" opacity="1.000000" stroke="none" 
	d="
M140.741257,240.155060 
	C140.768021,240.540344 140.553116,241.095154 140.058853,241.783478 
	C140.019516,241.386185 140.259537,240.855408 140.741257,240.155060 
z"/>
<path fill="#4C6CFA" opacity="1.000000" stroke="none" 
	d="
M176.350311,118.116592 
	C176.523514,117.801750 176.997726,117.449867 177.785553,117.090118 
	C177.616547,117.414688 177.133942,117.747116 176.350311,118.116592 
z"/>
<path fill="#3874FB" opacity="1.000000" stroke="none" 
	d="
M138.711243,243.113831 
	C138.755066,243.505035 138.557648,244.074173 138.083862,244.789520 
	C138.028336,244.387741 138.249161,243.839737 138.711243,243.113831 
z"/>
<path fill="#AD53DA" opacity="1.000000" stroke="none" 
	d="
M309.629578,228.742401 
	C309.479675,229.056458 309.048279,229.484344 308.295166,229.951538 
	C308.431702,229.612625 308.889893,229.234421 309.629578,228.742401 
z"/>
<path fill="#338AEF" opacity="1.000000" stroke="none" 
	d="
M95.544891,291.552948 
	C95.336975,291.276611 95.201721,290.706787 95.091705,289.830078 
	C95.283806,290.101929 95.450684,290.680695 95.544891,291.552948 
z"/>
<path fill="#4C6CFA" opacity="1.000000" stroke="none" 
	d="
M178.310059,117.032303 
	C178.251328,116.828621 178.451828,116.545715 178.891846,116.152023 
	C178.944016,116.345184 178.756653,116.649132 178.310059,117.032303 
z"/>
<path fill="#8E5AE7" opacity="1.000000" stroke="none" 
	d="
M213.368973,200.337204 
	C213.376892,200.197983 213.547409,200.117111 213.870819,200.032074 
	C213.896515,200.191040 213.732468,200.313599 213.368973,200.337204 
z"/>
<path fill="#3F71FB" opacity="1.000000" stroke="none" 
	d="
M152.618225,228.717636 
	C152.707642,228.925995 152.524261,229.273285 152.064392,229.740250 
	C151.973755,229.525482 152.159592,229.191025 152.618225,228.717636 
z"/>
<path fill="#3874FB" opacity="1.000000" stroke="none" 
	d="
M139.640366,241.905518 
	C139.727661,242.109756 139.560745,242.412888 139.162659,242.842987 
	C139.083054,242.648087 139.234604,242.326248 139.640366,241.905518 
z"/>
<path fill="#EBEBEB" opacity="1.000000" stroke="none" 
	d="
M216.081299,270.582306 
	C214.538406,275.785950 212.949036,280.562225 211.256592,285.673828 
	C208.798904,288.774414 206.444305,291.539673 203.911255,294.593628 
	C201.293777,296.391998 198.854736,297.901611 196.193085,299.656738 
	C192.850479,300.782227 189.730499,301.662292 186.291168,302.722473 
	C165.457565,303.323181 151.609238,294.192230 146.767838,276.763062 
	C145.801514,273.284241 145.745438,269.552612 145.270309,265.530090 
	C150.202713,265.029938 155.134445,264.937225 160.526337,264.772583 
	C165.014359,264.753662 169.042236,264.806671 173.527664,264.790283 
	C178.346649,264.801880 182.708054,264.882904 187.530426,264.906311 
	C190.693451,264.888153 193.395538,264.927612 196.544052,264.909149 
	C200.354843,264.861877 203.719177,264.872528 207.536621,264.815369 
	C210.363403,264.809998 212.737091,264.872498 215.554840,264.966492 
	C216.010849,266.716949 216.022827,268.435944 216.081299,270.582306 
z"/>
<path fill="#EBEBEB" opacity="1.000000" stroke="none" 
	d="
M342.408508,302.388550 
	C338.973694,302.373871 335.937378,302.245636 332.445648,302.141235 
	C328.909149,301.130310 325.828064,300.095551 322.381165,298.999329 
	C318.259705,295.956940 314.504089,292.975983 310.419525,289.896454 
	C308.097870,285.101868 306.105133,280.405823 303.997925,275.355072 
	C303.625427,271.888580 303.367340,268.776764 303.069305,265.183105 
	C304.970978,265.027527 306.558380,264.897675 308.571289,264.684753 
	C311.701263,264.658783 314.405731,264.715881 317.554199,264.689575 
	C322.691833,264.667114 327.385468,264.727966 332.539307,264.707703 
	C335.703522,264.683716 338.407562,264.740845 341.556458,264.718048 
	C346.362122,264.693756 350.722931,264.749359 355.542877,264.724304 
	C359.040619,264.696136 362.079254,264.748688 365.567078,264.715698 
	C368.332916,264.734528 370.649506,264.838898 373.392334,265.010376 
	C373.563232,268.436829 373.307922,271.796082 373.065460,275.576050 
	C369.482239,287.444855 362.523071,295.863342 350.923248,300.581909 
	C348.055878,301.320770 345.431458,301.797852 342.408508,302.388550 
z"/>
</svg>